<?xml version="1.0" encoding="UTF-8" standalone="no"?>
<!-- Created with Inkscape (http://www.inkscape.org/) -->

<svg
   width="180"
   height="180"
   viewBox="0 0 180 180"
   version="1.1"
   id="svg1"
   xml:space="preserve"
   inkscape:version="1.4 (86a8ad7, 2024-10-11)"
   sodipodi:docname="car add.svg"
   xmlns:inkscape="http://www.inkscape.org/namespaces/inkscape"
   xmlns:sodipodi="http://sodipodi.sourceforge.net/DTD/sodipodi-0.dtd"
   xmlns="http://www.w3.org/2000/svg"
   xmlns:svg="http://www.w3.org/2000/svg"><sodipodi:namedview
     id="namedview1"
     pagecolor="#ffffff"
     bordercolor="#000000"
     borderopacity="0.25"
     inkscape:showpageshadow="2"
     inkscape:pageopacity="0.0"
     inkscape:pagecheckerboard="0"
     inkscape:deskcolor="#d1d1d1"
     inkscape:document-units="px"
     inkscape:zoom="1.5194444"
     inkscape:cx="47.714809"
     inkscape:cy="167.49543"
     inkscape:window-width="1360"
     inkscape:window-height="705"
     inkscape:window-x="760"
     inkscape:window-y="621"
     inkscape:window-maximized="1"
     inkscape:current-layer="layer1" /><defs
     id="defs1"><linearGradient
       id="swatch1"
       inkscape:swatch="solid"><stop
         style="stop-color:#ffffff;stop-opacity:1;"
         offset="0"
         id="stop1" /></linearGradient><linearGradient
       id="swatch3"
       inkscape:swatch="solid"><stop
         style="stop-color:#ffffff;stop-opacity:1;"
         offset="0"
         id="stop3" /></linearGradient><linearGradient
       id="swatch2"
       inkscape:swatch="solid"><stop
         style="stop-color:#ffffff;stop-opacity:1;"
         offset="0"
         id="stop2" /></linearGradient></defs><g
     inkscape:label="Capa 1"
     inkscape:groupmode="layer"
     id="layer1"><path
       style="fill:#000000;stroke-width:0.917707"
       d="m 37.322365,173.98108 c -5.987806,-1.9177 -10.448043,-5.41032 -12.540469,-9.81979 -1.454999,-3.06613 -1.475457,-3.73375 -0.230371,-7.51556 1.206156,-3.66386 1.210226,-6.24579 0.03359,-22.02132 -0.847625,-11.37186 -1.014552,-18.2596 -0.458966,-18.93989 0.480246,-0.58794 2.198911,-3.68728 3.819303,-6.88738 2.15866,-4.26306 2.67389,-6.09061 1.927554,-6.83688 -1.528662,-1.52868 -1.233787,-4.216457 0.828773,-7.553707 2.102056,-3.401214 8.410406,-6.724143 17.469344,-9.201986 C 55.991424,83.065553 56.942034,82.2879 54.31153,80.181499 53.180965,79.276193 51.264488,76.629746 50.052707,74.3005 L 47.849412,70.065471 50.923787,59.864572 C 53.742586,50.511673 54.296125,49.447839 57.582713,47.067033 63.440928,42.823339 70.6761,40.5526 77.260316,40.891193 l 5.738037,0.294949 5.22529,-5.958847 c 2.873917,-3.277376 5.868148,-6.727618 6.653828,-7.667239 0.785691,-0.939621 1.848478,-2.178521 2.361739,-2.753115 0.513284,-0.574627 4.15552,-4.865552 8.09387,-9.535469 7.54423,-8.9455281 9.92156,-10.8627015 11.99477,-9.6728239 3.04493,1.7475958 33.48388,30.8863689 33.03062,31.6197469 -0.27666,0.447576 0.0192,0.7003 0.65788,0.561598 1.79448,-0.389782 2.06716,2.900217 0.39361,4.749405 -0.97076,1.072722 -3.49561,1.874612 -7.19263,2.284331 -3.1332,0.347218 -7.34864,0.988156 -9.36758,1.424234 -2.01896,0.436079 -8.00698,1.45623 -13.3068,2.266969 -5.29976,0.810701 -12.11373,1.888652 -15.14217,2.395366 -11.083853,1.854599 -10.553634,1.600719 -10.553634,5.053574 0,1.930205 -1.653926,6.369127 -4.296984,11.532691 -3.455853,6.751438 -5.248586,9.130977 -9.158501,12.156228 l -4.86151,3.761576 4.908356,2.481948 c 8.463917,4.279873 11.797106,9.828514 9.836057,16.373885 -1.271307,4.24333 -4.568298,7.03768 -10.025651,8.49728 -4.966192,1.32822 -13.317309,9.82313 -17.20516,17.50139 l -2.584355,5.10399 3.398504,4.85071 c 4.408919,6.29296 6.919532,9.05273 10.114701,11.11861 1.428535,0.92362 2.374672,1.90196 2.102549,2.17412 -0.272134,0.27226 0.10498,1.09457 0.838061,1.82762 0.733091,0.7331 1.332883,2.94089 1.332883,4.90624 0,11.9314 -25.556462,21.30319 -42.924363,15.7408 z m 26.230398,-6.41629 c 7.453174,-2.87795 11.188398,-6.09556 11.184281,-9.6343 l -0.0048,-2.93582 -1.741163,2.85539 c -3.786071,6.20883 -11.696642,9.53365 -22.68273,9.53365 -7.786683,0 -15.384099,-2.439 -19.065854,-6.12078 -3.326231,-3.32626 -3.001751,-1.06509 0.403726,2.81356 1.535934,1.74936 4.529955,3.82262 6.653393,4.60734 5.38764,1.99099 18.728763,1.39979 25.251742,-1.11904 z m -9.308658,-33.24634 c 1.213964,-0.47992 3.605251,-3.90197 6.144081,-8.7924 l 4.156587,-8.00674 -5.275746,5.82577 c -5.877444,6.49017 -7.463415,6.62211 -7.485325,0.62274 -0.0084,-2.11532 -0.414379,-4.46552 -0.903662,-5.22268 -0.633137,-0.97969 -0.893657,0.10081 -0.903641,3.74731 -0.0086,2.81815 -0.278334,5.38814 -0.601291,5.7111 -0.322991,0.32298 -2.284596,-0.71581 -4.359117,-2.3085 l -3.771873,-2.89578 2.982549,3.19346 c 1.640398,1.75641 2.98255,3.48353 2.98255,3.83806 0,0.35472 -1.342152,0.67721 -2.98255,0.71704 -3.304451,0.0801 -2.995016,0.27062 2.916024,1.79277 l 4.063163,1.04636 -2.916023,1.84632 c -3.898917,2.46862 -3.683487,2.93593 0.525366,1.13961 1.892776,-0.80779 4.335785,-1.82228 5.428908,-2.25444 z M 87.5884,98.902919 c 0,-2.630389 -1.883723,-4.886802 -6.183097,-7.406479 -8.407137,-4.926888 -28.321474,-3.809242 -40.583038,2.277622 -2.75571,1.367993 -5.174112,3.03174 -5.374247,3.697204 -0.211308,0.702497 1.697699,0.05815 4.55154,-1.536439 10.919673,-6.101176 25.618329,-7.691815 35.763213,-3.870157 6.994281,2.634832 8.539781,4.48776 7.884539,9.4529 l -0.517428,3.92084 2.229264,-2.57486 c 1.22611,-1.41622 2.229254,-3.198459 2.229254,-3.960631 z M 67.498973,76.530546 c 3.142757,-4.542637 6.033395,-8.259377 6.423637,-8.259377 1.236095,0 1.923389,1.871138 1.126285,3.066094 -0.421997,0.632651 0.159869,0.09819 1.293023,-1.187339 2.684451,-3.045788 2.606594,-4.298093 -0.312827,-5.0308 -4.498308,-1.129023 -16.889659,3.925595 -16.889659,6.889506 0,1.582349 2.466625,0.86424 3.301152,-0.961089 0.569287,-1.245173 1.224201,-1.564429 2.093124,-1.020378 1.044984,0.654304 0.85671,2.004837 -1.084095,7.777267 -1.291764,3.842046 -2.194783,6.985495 -2.006702,6.985495 0.188179,0 2.913301,-3.716706 6.056062,-8.259379 z m 1.96468,7.651594 c -0.630932,-0.254624 -1.663342,-0.254624 -2.294274,0 -0.630935,0.254623 -0.114722,0.462885 1.147134,0.462885 1.261867,0 1.778074,-0.20833 1.14714,-0.462885 z m 9.896913,-9.051447 c 3.118825,-2.300947 10.945413,-15.78262 10.969506,-18.895387 0.01538,-1.872484 -3.55688,-6.489941 -4.546533,-5.878311 -0.407122,0.251643 -1.008851,1.889507 -1.337198,3.639794 -0.932392,4.97009 -6.803299,8.536331 -10.256767,6.230385 -2.873181,-1.918481 -3.990438,-7.886588 -2.127869,-11.366807 0.545635,-1.019519 0.783643,-2.062113 0.52891,-2.316814 -0.695125,-0.695149 -11.321433,4.273039 -12.834833,6.000701 -0.723857,0.826344 -2.388539,4.947389 -3.69932,9.157891 -2.263748,7.271673 -2.308792,7.80068 -0.898627,10.553647 1.519123,2.965699 2.835328,4.235851 4.415205,4.260717 0.490866,0.0074 -0.02539,-0.628804 -1.147137,-1.414563 -1.141217,-0.799352 -2.039609,-2.39563 -2.039609,-3.624114 0,-4.038499 9.951693,-9.630638 17.138577,-9.630638 4.014742,0 8.563958,2.336152 8.534521,4.382695 -0.03624,2.509835 -6.10551,10.12141 -8.424717,10.565291 -1.990219,0.380933 -1.977039,0.410018 0.239244,0.528109 1.289951,0.06871 3.758974,-0.917929 5.486647,-2.192596 z m 0.125508,-18.473085 c 2.225903,-2.014432 2.116744,-2.772117 -0.386579,-2.683783 -1.610134,0.05674 -2.064854,-0.432381 -2.064854,-2.221385 0,-1.680538 0.552358,-2.372739 2.064854,-2.587527 2.370555,-0.336768 2.717681,-1.554126 0.667441,-2.340895 -2.335544,-0.896201 -5.026568,2.68393 -5.026568,6.687371 0,3.083382 0.659844,4.213787 2.680851,4.592557 0.212589,0.03995 1.141822,-0.610996 2.064855,-1.446338 z M 120.40572,39.755263 c 19.05148,-5.214116 23.78407,-7.158584 19.41589,-7.977349 -0.71527,-0.134024 -11.00528,3.071585 -22.86666,7.123673 -11.86137,4.052053 -20.740205,7.216269 -19.730704,7.031569 1.009468,-0.184823 11.441144,-2.964732 23.181474,-6.177893 z m -10.33358,-5.918522 c 10.59953,-5.941974 19.45376,-10.959069 19.67612,-11.149146 0.22228,-0.190037 -0.19417,-0.943727 -0.92505,-1.674793 -1.16055,-1.16057 -3.45795,0.08103 -18.10044,9.780389 -9.22414,6.110316 -16.977105,10.903776 -17.228777,10.652098 -0.25166,-0.251644 6.591227,-5.732856 15.206487,-12.180385 14.0009,-10.478114 17.32249,-13.761989 13.92001,-13.761989 -1.70829,0 -34.20275,28.022628 -33.608796,28.983605 0.296371,0.479537 0.820049,0.710306 1.163728,0.51284 0.34368,-0.197492 9.297191,-5.220652 19.896718,-11.162619 z m -19.52313,9.129853 c 0.871277,-0.912215 1.835819,-1.406872 2.14344,-1.099266 0.3076,0.307642 -0.405249,1.053978 -1.584137,1.65859 -2.049137,1.05088 -2.07375,1.026237 -0.559303,-0.559324 z m 22.07283,-5.476546 c 23.31715,-9.650089 22.72189,-9.357753 22.14011,-10.873833 -0.40251,-1.048901 -2.44892,-0.412331 -9.84582,3.062736 -18.47349,8.678773 -30.431921,14.571797 -29.730723,14.651058 0.39284,0.04443 8.239263,-3.033579 17.436433,-6.839961 z"
       id="path1" /><rect
       style="fill:#ffffff;fill-opacity:0;stroke:#000000;stroke-width:3.1;stroke-dasharray:none"
       id="rect3"
       width="17.769653"
       height="47.385742"
       x="115.83181"
       y="111.22486" /><rect
       style="fill:#ffffff;fill-opacity:0;stroke:#000000;stroke-width:3.1;stroke-dasharray:none"
       id="rect4"
       width="58.574039"
       height="15.137112"
       x="95.429611"
       y="127.67825" /></g></svg>
