<?xml version="1.0" encoding="UTF-8" standalone="no"?>
<!-- Created with Inkscape (http://www.inkscape.org/) -->

<svg
   width="48"
   height="48"
   viewBox="0 0 48 48"
   version="1.1"
   id="svg1"
   xml:space="preserve"
   inkscape:version="1.4 (86a8ad7, 2024-10-11)"
   sodipodi:docname="logo.svg"
   xmlns:inkscape="http://www.inkscape.org/namespaces/inkscape"
   xmlns:sodipodi="http://sodipodi.sourceforge.net/DTD/sodipodi-0.dtd"
   xmlns="http://www.w3.org/2000/svg"
   xmlns:svg="http://www.w3.org/2000/svg"><sodipodi:namedview
     id="namedview1"
     pagecolor="#ffffff"
     bordercolor="#000000"
     borderopacity="0.25"
     inkscape:showpageshadow="2"
     inkscape:pageopacity="0.0"
     inkscape:pagecheckerboard="0"
     inkscape:deskcolor="#d1d1d1"
     inkscape:document-units="px"
     inkscape:zoom="5.5520833"
     inkscape:cx="30.709193"
     inkscape:cy="49.981238"
     inkscape:window-width="1360"
     inkscape:window-height="705"
     inkscape:window-x="760"
     inkscape:window-y="621"
     inkscape:window-maximized="1"
     inkscape:current-layer="layer1" /><defs
     id="defs1" /><g
     inkscape:label="Capa 1"
     inkscape:groupmode="layer"
     id="layer1"><path
       style="fill:#000000;stroke-width:0.0673456"
       d="m 8.3000255,34.470913 c -0.55035,-0.396128 -0.572281,-0.671928 -0.166619,-2.095231 0.172606,-0.6056 0.355405,-1.193873 0.40622,-1.307268 0.133032,-0.296871 0.404704,-0.575314 0.727404,-0.745528 0.27693,-0.146072 0.374115,-0.148107 7.1536195,-0.149683 l 6.872877,-0.0016 0.15691,-0.327138 0.156911,-0.327141 h -0.871517 c -0.73211,0 -0.908543,-0.02202 -1.102985,-0.137661 -0.387376,-0.230384 -0.481874,-0.403505 -0.474744,-0.869746 0.0057,-0.372784 0.0574,-0.519607 0.566808,-1.609711 0.308293,-0.659735 0.734406,-1.577025 0.946919,-2.038431 0.410667,-0.891632 0.736857,-1.350442 1.116388,-1.570287 0.194747,-0.11281 0.412632,-0.139019 1.314732,-0.158149 l 1.081299,-0.02291 0.649951,-1.560641 c 0.357473,-0.858351 0.649952,-1.587285 0.649952,-1.61985 0,-0.147605 0.726818,-1.392711 1.01786,-1.743691 0.382696,-0.461507 0.856465,-0.835862 1.199488,-0.947794 0.135824,-0.04432 0.836515,-0.08857 1.557089,-0.09833 l 1.310136,-0.01774 0.01575,-0.254444 c 0.117237,-1.89451 0.70495,-3.51785 1.712849,-4.73111 1.027717,-1.237118 2.134377,-1.917263 3.607967,-2.2174261 0.965984,-0.196768 2.182276,-0.06357 3.11693,0.3413381 1.962477,0.850188 3.381299,2.664453 3.94474,5.044199 0.158486,0.669387 0.217932,2.305878 0.11165,3.073598 -0.155374,1.122373 -0.576773,2.260076 -1.186137,3.202411 -0.97979,1.515171 -2.336318,2.464405 -4.024415,2.816081 -1.210991,0.252317 -2.733682,-0.02903 -3.868028,-0.714643 -0.413918,-0.250179 -1.364607,-1.04198 -1.559685,-1.299011 -0.558938,-0.736459 -0.758319,-1.040462 -0.983018,-1.498849 -0.236286,-0.482022 -0.358311,-0.637849 -0.358311,-0.457562 0,0.03825 -0.07912,0.226329 -0.175838,0.418013 -0.09671,0.191683 -0.367286,0.773798 -0.601279,1.293584 -0.233992,0.519789 -0.488521,1.07593 -0.56562,1.235865 -0.0771,0.159935 -0.252072,0.536146 -0.388829,0.836022 -0.136757,0.29988 -0.333192,0.72516 -0.436521,0.94507 -0.460185,0.979386 -0.888895,1.913913 -0.888895,1.937665 0,0.01424 -0.191984,0.42648 -0.42663,0.916085 -0.234645,0.489602 -0.586395,1.241861 -0.781665,1.671686 l -0.355034,0.781501 h 1.561507 c 0.988654,0 1.561506,0.02638 1.561506,0.07196 0,0.03958 -0.126334,0.301622 -0.280743,0.582325 -0.154408,0.280706 -0.280743,0.526855 -0.280743,0.546997 0,0.02016 -0.06316,0.150259 -0.140372,0.289149 l -0.140371,0.252522 -1.472738,7.78e-4 -1.472739,7.78e-4 -0.613423,1.199515 -0.613423,1.19951 -9.04999,-2.88e-4 c -8.7016725,-2.93e-4 -9.0571915,-0.0054 -9.2371505,-0.13499 z M 22.303437,32.407064 c 0.147533,-0.329865 0.292686,-0.630834 0.322563,-0.668819 0.02987,-0.03797 0.05432,-0.09524 0.05432,-0.127222 0,-0.03198 -0.90619,-0.05816 -2.013757,-0.05816 h -2.013756 l -0.33037,0.726978 -0.33037,0.726977 h 2.021563 2.021563 z m 2.291894,-5.23424 c 0.140457,-0.289881 0.429274,-0.911447 0.641816,-1.381257 l 0.386441,-0.854199 h -0.648166 -0.648165 l -0.135574,0.308965 c -0.07457,0.169934 -0.303338,0.668819 -0.508384,1.108643 -0.205046,0.43982 -0.429925,0.922353 -0.499731,1.072292 l -0.12692,0.272614 h 0.641653 0.641654 z m 15.494792,-4.131487 c 0.962649,-0.276567 2.006309,-0.989596 2.615149,-1.786668 0.581411,-0.76116 1.036452,-1.770808 1.256272,-2.787402 0.142009,-0.656734 0.111051,-2.169531 -0.05862,-2.863811 -0.456216,-1.86703 -1.539364,-3.311433 -3.022894,-4.031096 -1.187444,-0.57603 -2.625378,-0.606497 -3.837923,-0.08132 -0.511392,0.221493 -0.769154,0.392233 -1.312814,0.869594 -1.148809,1.008715 -1.93906,2.690754 -2.015135,4.28919 l -0.02249,0.472537 h 0.311938 0.311937 l 0.03957,-0.515872 c 0.146065,-1.904139 1.235004,-3.619771 2.778328,-4.377278 1.155323,-0.567066 2.630911,-0.500185 3.798667,0.172175 1.80923,1.041696 2.843983,3.517414 2.428947,5.811441 -0.454056,2.509726 -2.288308,4.252818 -4.475228,4.252818 -1.789933,0 -3.324467,-1.114923 -4.097096,-2.976762 -0.140159,-0.337748 -0.254833,-0.654778 -0.254833,-0.704513 0,-0.17223 -0.120889,-0.176022 -0.339918,-0.01066 -0.270139,0.203931 -0.275151,0.324671 -0.03776,0.90942 0.682646,1.681451 1.976166,2.929109 3.485022,3.361455 0.686466,0.196698 1.757853,0.195282 2.448846,-0.0031 z m -0.202891,-1.345011 c 0.700606,-0.200896 1.227949,-0.565964 1.822857,-1.261909 0.816402,-0.955062 1.183749,-1.975064 1.183749,-3.286899 0,-1.824165 -0.861391,-3.414085 -2.277143,-4.203056 -0.643755,-0.358754 -1.05389,-0.467674 -1.746845,-0.463911 -1.199038,0.0065 -2.206352,0.540417 -3.02024,1.600812 -0.54303,0.707504 -1.003746,2.02207 -1.003746,2.864002 0,0.212289 0.0019,0.213343 0.374324,0.213343 h 0.374324 v -0.351481 c 0,-0.786089 0.445465,-1.849208 1.040285,-2.482683 0.694053,-0.739156 1.532149,-1.072211 2.511971,-0.998237 0.798054,0.06025 1.357513,0.345778 1.95811,0.999361 1.319437,1.435851 1.461044,3.620766 0.341322,5.266432 -0.970833,1.42684 -2.71056,1.830951 -4.136034,0.960742 -0.665656,-0.406364 -1.454905,-1.493263 -1.569606,-2.161552 -0.04061,-0.236625 -0.108482,-0.256444 -0.473582,-0.138291 -0.28995,0.09383 -0.295098,0.187306 -0.04596,0.83436 0.561927,1.459414 1.721387,2.467256 3.138189,2.727832 0.418676,0.07701 1.003667,0.03152 1.528022,-0.118865 z m -0.197449,-1.446982 c 0.736457,-0.254849 1.48642,-1.068589 1.769503,-1.919975 0.188738,-0.567637 0.229203,-1.375374 0.09864,-1.968542 -0.180668,-0.820801 -0.564253,-1.43663 -1.187854,-1.907069 -1.362438,-1.027811 -3.220293,-0.448902 -3.956587,1.232873 -0.146086,0.333674 -0.319871,1.043011 -0.319871,1.305606 0,0.150706 0.02877,0.166471 0.303819,0.166471 h 0.303821 l 0.07655,-0.453434 c 0.179843,-1.065187 0.763204,-1.760479 1.663426,-1.982575 0.998626,-0.246379 1.941686,0.304594 2.400594,1.402511 0.117988,0.282293 0.143742,0.464888 0.145761,1.033498 0.0016,0.589515 -0.01995,0.743848 -0.150613,1.054119 -0.228341,0.542232 -0.712436,1.072308 -1.15802,1.268003 -0.524716,0.230449 -1.287621,0.18957 -1.762642,-0.09444 -0.431943,-0.258257 -0.765676,-0.65547 -0.980401,-1.166884 -0.131031,-0.31208 -0.198567,-0.402955 -0.27413,-0.368869 -0.05514,0.0249 -0.177469,0.06339 -0.271829,0.08558 -0.204965,0.0482 -0.206202,0.06136 -0.04655,0.495356 0.294398,0.800309 0.851134,1.419569 1.56308,1.73863 0.481032,0.215575 1.285832,0.251292 1.7833,0.07915 z m -0.04121,-1.461242 c 0.528541,-0.335207 0.812158,-0.908132 0.812158,-1.640607 0,-0.727086 -0.271639,-1.275375 -0.796905,-1.608509 -0.425092,-0.269602 -0.780863,-0.316629 -1.236807,-0.163483 -0.606544,0.203729 -1.148045,0.971644 -1.148045,1.628072 0,0.139018 0.03461,0.155133 0.333256,0.155133 0.331691,0 0.333588,-0.0011 0.404125,-0.275636 0.29912,-1.163366 1.758112,-0.930601 1.758112,0.280488 0,0.598078 -0.384267,1.012916 -0.938266,1.012916 -0.311531,0 -0.34686,-0.01946 -0.604534,-0.332818 -0.253563,-0.308365 -0.290686,-0.329464 -0.505279,-0.287219 -0.386328,0.07605 -0.414056,0.123339 -0.267988,0.45697 0.4016,0.917295 1.405459,1.272376 2.190173,0.774693 z M 5.8643355,29.38068 c -0.317927,-0.168281 -0.566295,-0.508927 -0.65809,-0.9026 -0.09781,-0.419441 -0.03176,-1.307496 0.13358,-1.795966 0.07444,-0.21991 0.227689,-0.69426 0.340568,-1.054115 0.112878,-0.359855 0.415909,-1.308559 0.673402,-2.108238 0.257493,-0.799675 0.713111,-2.222734 1.012483,-3.162353 0.299372,-0.939616 0.628741,-1.911326 0.73193,-2.159354 0.258328,-0.62092 0.703532,-1.179824 1.179166,-1.480318 l 0.395174,-0.249658 h 8.0791675 8.079169 l 0.280743,0.154465 c 0.580496,0.319379 0.873423,0.818245 0.873423,1.487472 0,0.404583 -0.09311,0.675107 -0.936129,2.71993 -0.247262,0.599755 -0.515244,1.262217 -0.595516,1.472132 l -0.145948,0.381662 h -3.871452 c -2.129299,0 -3.871452,-0.01992 -3.871452,-0.04429 0,-0.02436 0.192879,-0.408749 0.428621,-0.854199 0.662572,-1.251977 0.64602,-1.13705 0.163769,-1.13705 -0.420957,0 -0.706713,0.121067 -1.016183,0.430541 -0.07867,0.07868 -0.383714,0.725518 -0.677861,1.437431 -0.294147,0.711908 -0.73084,1.768731 -0.970431,2.348496 -0.681729,1.649653 -0.732073,1.787042 -0.749836,2.046232 l -0.01671,0.243748 1.442936,0.01949 c 1.334591,0.01801 1.445313,0.0098 1.474622,-0.109049 0.01743,-0.07069 0.05135,-0.184073 0.07538,-0.251946 0.03986,-0.112585 -0.03116,-0.123281 -0.809841,-0.121958 -0.469442,7.78e-4 -0.866207,-0.01331 -0.881701,-0.03136 -0.01549,-0.01805 0.266242,-0.699236 0.626078,-1.513739 l 0.654247,-1.480916 2.499175,-0.01899 c 1.374546,-0.01047 2.498666,0.0059 2.498045,0.03634 -6.22e-4,0.03042 -0.08763,0.235274 -0.193344,0.455184 -0.105717,0.21991 -0.291661,0.612478 -0.413208,0.872373 -0.121548,0.259895 -0.329324,0.696283 -0.461724,0.969753 -0.132401,0.273473 -0.240729,0.510809 -0.240729,0.527419 0,0.01662 -0.19652,0.438801 -0.436712,0.938203 -0.240192,0.499403 -0.436712,0.92799 -0.436712,0.952424 0,0.02443 -0.0821,0.165203 -0.182428,0.31282 -0.227863,0.33525 -0.739822,0.642502 -1.224742,0.735031 -0.222892,0.04253 -2.81036,0.0703 -6.484836,0.06959 -5.7972295,-0.0012 -6.1270265,-0.0081 -6.3660955,-0.13463 z M 18.509039,28.788519 c 0.214533,-0.04533 0.498313,-0.146777 0.630624,-0.225431 0.256563,-0.152519 0.634331,-0.75245 0.579209,-0.919839 -0.01745,-0.05298 -0.0073,-0.07875 0.02247,-0.05729 0.04594,0.03307 1.566462,-3.129527 1.566462,-3.258165 0,-0.02459 -0.810161,-0.0447 -1.800359,-0.0447 h -1.800361 l -0.386958,0.872372 -0.386958,0.872373 h 0.845989 c 0.465294,0 0.845989,0.02533 0.845989,0.05631 0,0.08565 -0.566553,1.643369 -0.623088,1.713172 -0.07989,0.09863 -3.483357,0.05729 -3.622547,-0.044 -0.300389,-0.218595 -0.320652,-0.996287 -0.04331,-1.66194 0.08953,-0.214875 0.273906,-0.668745 0.409729,-1.008609 0.285177,-0.713578 0.89792,-2.207046 1.405856,-3.426559 0.384678,-0.923585 0.644406,-1.269857 1.15558,-1.540635 0.244016,-0.129257 0.43954,-0.15713 1.270981,-0.18117 1.049555,-0.03035 1.094869,-0.0142 0.894768,0.318691 -0.04831,0.08037 -0.27079,0.51293 -0.494402,0.961248 l -0.406567,0.815121 3.161462,-5.1e-5 3.161463,-5e-5 0.232517,-0.563359 c 0.127884,-0.309847 0.402619,-0.988638 0.610523,-1.508427 0.207903,-0.51979 0.450493,-1.103804 0.539089,-1.29781 0.280306,-0.613803 0.1386,-1.091792 -0.404699,-1.365079 -0.259336,-0.130451 -0.589946,-0.135976 -8.137456,-0.135976 -7.7935195,0 -7.8695975,0.0016 -8.1302935,0.148446 -0.327766,0.18489 -0.777264,0.737198 -0.980684,1.204985 -0.0849,0.195231 -0.253217,0.665749 -0.374042,1.045594 -0.120825,0.379849 -0.360008,1.132268 -0.531517,1.672051 -0.171509,0.539781 -0.667925,2.093695 -1.103149,3.453145 -0.835086,2.608449 -0.960092,3.145319 -0.835111,3.586602 0.100859,0.356108 0.212685,0.469215 0.515793,0.5217 0.504345,0.08733 11.7987245,0.08482 12.2129955,-0.0027 z"
       id="path1" /></g></svg>
