<?xml version="1.0" encoding="UTF-8" standalone="no"?>
<!-- Created with Inkscape (http://www.inkscape.org/) -->

<svg
   width="120"
   height="120"
   viewBox="0 0 120 120"
   version="1.1"
   id="svg1"
   inkscape:version="1.4 (86a8ad7, 2024-10-11)"
   sodipodi:docname="dibujo.svg"
   xmlns:inkscape="http://www.inkscape.org/namespaces/inkscape"
   xmlns:sodipodi="http://sodipodi.sourceforge.net/DTD/sodipodi-0.dtd"
   xmlns="http://www.w3.org/2000/svg"
   xmlns:svg="http://www.w3.org/2000/svg">
  <sodipodi:namedview
     id="namedview1"
     pagecolor="#ffffff"
     bordercolor="#000000"
     borderopacity="0.25"
     inkscape:showpageshadow="2"
     inkscape:pageopacity="0.0"
     inkscape:pagecheckerboard="0"
     inkscape:deskcolor="#d1d1d1"
     inkscape:document-units="px"
     inkscape:zoom="4.4416667"
     inkscape:cx="60"
     inkscape:cy="60"
     inkscape:window-width="1360"
     inkscape:window-height="705"
     inkscape:window-x="760"
     inkscape:window-y="621"
     inkscape:window-maximized="1"
     inkscape:current-layer="layer1" />
  <defs
     id="defs1" />
  <g
     inkscape:label="Capa 1"
     inkscape:groupmode="layer"
     id="layer1">
    <path
       style="fill:#000000;stroke-width:4.65256"
       d="M 51.155081,105.75704 C 44.835403,103.27695 38.649672,98.068136 34.443068,91.684338 31.238105,86.820602 30.351228,86.24119 26.111439,86.24119 c -10.401422,0 -18.6311386,-10.55667 -18.6311386,-23.899099 0,-9.614901 3.0618406,-16.051767 10.0084136,-21.04055 4.664859,-3.350137 6.232541,-5.548396 8.970303,-12.578475 4.436282,-11.391575 4.654554,-11.673276 10.059153,-12.982289 6.868777,-1.663644 38.834699,-1.338191 43.846799,0.446416 3.767439,1.341435 4.622238,2.560067 8.026819,11.443343 3.237537,8.44742 4.595832,10.485352 9.035289,13.556157 9.803533,6.781169 13.403183,20.199188 8.706653,32.454766 -2.54886,6.651228 -10.747256,12.599739 -17.36529,12.599739 -3.969287,0 -5.009755,0.569934 -6.487483,3.553606 -2.060599,4.160527 -9.935232,11.859976 -14.836232,14.506196 -5.308364,2.86615 -11.325855,3.40402 -16.289644,1.45604 z m 15.958128,-4.46495 c 4.453661,-2.378654 10.261403,-8.367862 13.637148,-14.063253 1.113218,-1.87816 2.024023,-3.622818 2.024023,-3.877031 0,-0.254197 -2.892972,-0.211698 -6.428828,0.09442 -7.504857,0.649812 -13.407643,-1.901245 -15.501471,-6.699413 -2.244213,-5.142791 -4.573214,-3.818606 -4.573214,2.600163 0,5.435135 0.131996,5.649687 3.01176,4.895031 3.617204,-0.947914 3.942753,0.132584 0.602355,1.99916 -3.805971,2.126778 -7.459731,-0.485749 -6.465268,-4.622783 l 0.784679,-3.264319 -3.684854,2.844506 c -3.119345,2.407972 -4.796054,2.760582 -10.925458,2.29767 l -7.240601,-0.546849 1.741225,3.515692 c 3.1051,6.269482 8.893285,12.113362 15.299092,15.446336 6.82937,3.55335 10.122201,3.43825 17.719412,-0.61933 z M 54.070524,97.919366 c -1.676376,-0.3336 -2.561895,-1.2129 -2.203502,-2.18807 0.329562,-0.89669 -0.03551,-1.559187 -0.811424,-1.47222 -0.775836,0.08692 -1.51415,-0.407906 -1.640692,-1.099718 -0.126534,-0.69182 -1.481836,-1.566384 -3.011762,-1.943487 -3.088169,-0.761175 -3.859229,-5.018933 -1.083834,-5.984876 1.167508,-0.406331 1.461546,0.05209 0.941336,1.467496 -0.658508,1.791747 0.398908,2.058394 8.162542,2.058394 4.905482,0 10.290449,-0.544396 11.966597,-1.209786 4.56413,-1.811819 5.184985,0.777501 1.221996,5.096438 -2.810941,3.063419 -4.098387,3.582919 -7.66101,3.091299 -2.355242,-0.32499 -3.333556,-0.288376 -2.174024,0.0814 1.159526,0.36973 2.108235,1.19678 2.108235,1.83788 0,1.19482 -0.9301,1.23726 -5.814458,0.26532 z M 50.340005,77.533021 c 9.064468,-9.46432 -1.053682,-25.737495 -16.002761,-25.737495 -4.754759,0 -6.470064,0.638181 -9.102284,3.386513 -8.884274,9.276174 1.185279,26.027765 15.645559,26.027765 4.956824,0 6.519934,-0.60756 9.459486,-3.676783 z M 32.056537,77.340577 C 23.688929,72.133791 21.171805,62.397519 26.700826,56.624605 c 2.364057,-2.468342 4.185195,-3.087446 9.081939,-3.087446 5.4307,0 6.682666,0.543195 11.045527,4.79235 4.160884,4.052435 4.940976,5.604021 5.052618,10.049486 0.172385,6.864401 -3.078781,10.39945 -10.232745,11.126233 -3.890488,0.395254 -6.380963,-0.16682 -9.591628,-2.164661 z m 49.893512,2.460444 c 8.739498,-4.678912 13.357327,-13.934129 10.520366,-21.085277 -4.368106,-11.010738 -23.760069,-8.358753 -29.38539,4.018658 -2.941579,6.472365 -2.518426,10.575669 1.526106,14.798619 2.880797,3.007871 4.538978,3.676783 9.114488,3.676783 3.076176,0 6.777167,-0.63395 8.22443,-1.408783 z m -13.029782,-1.30154 c -8.575443,-4.89731 -6.875586,-17.737063 3.05831,-23.100679 4.999199,-2.699229 12.271543,-2.3616 16.05451,0.745347 4.045076,3.32222 4.449218,11.71338 0.797587,16.560459 -4.612683,6.122742 -14.365741,8.961348 -19.910407,5.794873 z M 16.51559,77.436261 13.503827,74.976506 16.51559,74.863413 19.527353,74.75032 16.816766,73.385389 c -1.490822,-0.750716 -2.710587,-1.84447 -2.710587,-2.430566 0,-0.586097 1.219765,-1.101508 2.710587,-1.145359 2.645684,-0.07782 2.638472,-0.113144 -0.301177,-1.476007 -3.004732,-1.393013 -3.005434,-1.397434 -0.301177,-1.894524 3.356884,-0.61705 3.5926,-2.838979 0.301177,-2.838979 -1.325176,0 -2.409411,-0.566029 -2.409411,-1.257846 0,-0.691817 1.084235,-1.257846 2.409411,-1.257846 3.291423,0 3.055708,-2.221929 -0.301177,-2.838979 -2.704258,-0.497084 -2.703556,-0.50151 0.301177,-1.894524 2.939648,-1.36284 2.946859,-1.398182 0.301177,-1.476006 -1.490822,-0.04383 -2.710587,-0.559263 -2.710587,-1.145359 0,-0.586096 1.219765,-1.679851 2.710587,-2.430566 L 19.527353,49.933884 16.51559,49.820778 13.503827,49.707685 16.51559,47.24793 c 2.462171,-2.010896 2.623817,-2.464861 0.885822,-2.487727 -4.690593,-0.06171 -9.074511,12.955046 -7.5455293,22.404227 1.0190723,6.29791 4.8611353,12.794879 7.5455293,12.759561 1.737995,-0.02282 1.576349,-0.476829 -0.885822,-2.487724 z m 86.43761,-3.725607 c 3.3541,-6.944791 3.47336,-15.152507 0.32541,-22.393901 -2.24418,-5.162383 -5.277779,-7.807747 -6.950637,-6.061105 -0.439424,0.458815 0.397131,1.160788 1.859036,1.559944 3.164701,0.864098 3.545001,2.93119 0.549737,2.98803 -2.007842,0.03804 -2.007842,0.119572 0,1.710976 2.660474,2.108682 2.685804,3.280407 0.07096,3.280407 -1.776532,0 -1.737976,0.236421 0.301199,1.846771 2.115945,1.671013 2.137845,1.850574 0.230261,1.886772 -2.561426,0.04859 -2.856862,2.555697 -0.301207,2.555697 0.993881,0 1.807061,0.56603 1.807061,1.257846 0,0.691817 -0.81318,1.257846 -1.807061,1.257846 -2.555679,0 -2.260227,2.507096 0.301207,2.555703 1.907584,0.03612 1.885684,0.215739 -0.230261,1.886771 -2.039152,1.610369 -2.077707,1.846765 -0.301199,1.846765 2.887784,0 2.524614,1.885878 -0.673273,3.496195 l -2.710588,1.364932 2.710588,0.08514 c 2.919367,0.09171 3.859637,2.60083 0.97463,2.60083 -0.954777,0 -2.103222,0.620443 -2.552084,1.378765 -0.505851,0.854596 0.03966,1.213248 1.434782,0.943388 1.238007,-0.239462 3.470669,-2.960954 4.961489,-6.047761 z M 61.69204,60.24557 c 2.236503,-4.274921 7.82783,-8.252385 15.945584,-11.343091 l 2.693823,-1.025634 -3.158725,-5.512956 c -2.833231,-4.944873 -3.284298,-5.268911 -4.377376,-3.144619 -1.784897,3.468781 -1.846425,3.497316 -3.83171,1.776994 -1.48917,-1.290422 -1.958065,-1.208296 -2.567413,0.44968 -0.992733,2.701144 -3.81153,2.589705 -4.370834,-0.172798 -0.352605,-1.741563 -0.841584,-1.432551 -2.341604,1.479779 l -1.895933,3.681012 -1.524029,-3.05209 c -2.173055,-4.351854 -2.245953,-4.381777 -4.14739,-1.702416 -1.689024,2.380049 -1.750816,2.380629 -3.417776,0.03209 -1.171716,-1.650805 -1.96326,-1.94307 -2.554997,-0.94339 -1.244198,2.101962 -3.124553,1.775069 -3.124553,-0.543189 0,-3.010714 -2.677637,-1.474045 -5.790048,3.322849 l -2.778283,4.281935 5.187695,1.756376 c 6.615728,2.239861 12.513159,6.829653 14.857537,11.563166 2.42941,4.905192 4.278491,4.672979 7.196032,-0.903697 z M 42.172673,34.897423 c 1.280633,-0.257509 2.051137,0.388826 2.051137,1.720581 0,1.772748 0.311577,1.863028 1.844714,0.534508 1.523396,-1.32008 2.126315,-1.196403 3.461455,0.710051 1.544186,2.204958 1.65427,2.18511 2.452936,-0.44228 1.066728,-3.509221 2.615613,-3.49777 4.425248,0.03271 l 1.426774,2.783567 0.986199,-2.783557 c 1.257149,-3.548299 3.074069,-3.562632 4.147084,-0.0327 0.765105,2.516966 0.962536,2.570438 2.322227,0.628924 1.756198,-2.507692 3.78922,-2.748553 4.639027,-0.549605 0.362983,0.939286 0.645928,0.686076 0.702743,-0.628924 0.200433,-4.638358 5.452492,-1.694081 9.575757,5.368095 l 2.557395,4.380224 0.0048,-3.503337 C 82.78103,34.212943 72.131454,27.150729 58.680587,27.141671 c -4.306819,-0.0029 -9.98683,0.619756 -12.62224,1.383681 -6.202447,1.797805 -13.881588,9.691942 -13.881588,14.269913 0,3.267984 0.143413,3.194064 3.972385,-2.047505 2.184812,-2.990839 4.895401,-5.623488 6.023529,-5.85033 z m 2.267506,-8.479022 c 7.480885,-2.59436 23.81026,-2.034268 29.298911,1.004943 4.172046,2.310172 8.374546,6.236719 10.079444,9.417572 2.605561,4.861274 2.092742,0.530328 -0.741171,-6.259475 L 80.058619,23.348818 H 57.945038 35.831464 l -3.032058,6.247423 c -4.170706,8.593557 -3.799515,9.740951 1.259723,3.893952 2.801996,-3.238287 6.405518,-5.693084 10.38105,-7.071792 z m 37.129496,-6.678547 c 0,-1.769957 -8.017134,-2.652586 -24.094105,-2.652586 -16.076972,0 -24.094106,0.882629 -24.094106,2.652586 0,0.601298 10.842346,1.093268 24.094106,1.093268 13.251755,0 24.094105,-0.49197 24.094105,-1.093268 z"
       id="path1" />
  </g>
</svg>
