<?xml version="1.0" encoding="UTF-8" standalone="no"?>
<!-- Created with Inkscape (http://www.inkscape.org/) -->

<svg
   width="48"
   height="48"
   viewBox="0 0 48 48"
   version="1.1"
   id="svg1"
   xml:space="preserve"
   inkscape:version="1.4 (86a8ad7, 2024-10-11)"
   sodipodi:docname="Gum.svg"
   xmlns:inkscape="http://www.inkscape.org/namespaces/inkscape"
   xmlns:sodipodi="http://sodipodi.sourceforge.net/DTD/sodipodi-0.dtd"
   xmlns="http://www.w3.org/2000/svg"
   xmlns:svg="http://www.w3.org/2000/svg"><sodipodi:namedview
     id="namedview1"
     pagecolor="#ffffff"
     bordercolor="#000000"
     borderopacity="0.25"
     inkscape:showpageshadow="2"
     inkscape:pageopacity="0.0"
     inkscape:pagecheckerboard="0"
     inkscape:deskcolor="#d1d1d1"
     inkscape:document-units="px"
     inkscape:zoom="3.9259158"
     inkscape:cx="-0.6367941"
     inkscape:cy="13.882111"
     inkscape:window-width="1360"
     inkscape:window-height="705"
     inkscape:window-x="760"
     inkscape:window-y="621"
     inkscape:window-maximized="1"
     inkscape:current-layer="layer1" /><defs
     id="defs1" /><g
     inkscape:label="Capa 1"
     inkscape:groupmode="layer"
     id="layer1"><path
       style="fill:#000000;stroke-width:0.493251"
       d="m 11.816199,40.413657 c -1.302271,-1.4606 -1.530956,-3.001926 -0.643344,-4.33611 1.01816,-1.530412 0.816605,-3.107708 -0.486523,-3.807355 -6.2796087,-3.371507 -7.4042384,-4.904183 -7.4042384,-10.090701 0,-4.287058 0.8757192,-6.104866 3.8903965,-8.075639 1.4424768,-0.942984 2.8745649,-1.714517 3.1824179,-1.714517 0.307853,0 1.009535,-0.868354 1.559292,-1.929674 1.98569,-3.8334207 5.836686,-5.6576974 11.943241,-5.6576974 6.074094,0 9.95831,1.8257436 11.913198,5.5997024 0.596999,1.15252 1.441256,1.988286 2.19726,2.175163 0.675258,0.166916 1.522957,0.581357 1.883776,0.920981 0.360818,0.339621 1.265234,1.001419 2.009811,1.47066 2.697903,1.700246 3.618103,8.806049 1.63058,12.591381 -0.378651,0.721158 -1.941294,2.063452 -3.472542,2.982874 -4.838692,2.905346 -4.575864,2.596487 -3.784068,4.446792 0.982574,2.296127 0.855654,4.233937 -0.355435,5.426714 L 34.841509,41.43904 33.84605,40.253274 c -0.547503,-0.652169 -1.249787,-1.774925 -1.560632,-2.495012 l -0.565172,-1.309248 -2.203517,1.65655 c -4.141581,3.113539 -7.178238,3.112608 -11.323203,-0.0035 -1.906241,-1.433066 -2.251337,-1.547477 -2.524067,-0.836811 -0.436848,1.138325 -2.433032,3.997595 -2.793747,4.001674 -0.162654,0.0019 -0.639435,-0.382142 -1.059513,-0.853293 z m 3.359509,-3.614648 c 0.144545,-0.439988 -0.466358,-1.955226 -1.357561,-3.367197 -1.506695,-2.387113 -1.633781,-2.923985 -1.811509,-7.652602 -0.293803,-7.816916 0.590171,-9.001188 7.274702,-9.746022 l 3.085032,-0.343754 -0.0068,-3.975212 c -0.01135,-6.6449441 -0.498187,-7.1521148 -4.9545,-5.161315 -2.802453,1.2519595 -3.84527,2.1806394 -5.042157,4.490281 -0.523192,1.00961 -1.274334,1.835656 -1.669205,1.835656 -1.3935938,0 -1.7469657,1.917236 -1.7469657,9.478255 0,6.242402 0.1382137,7.720711 0.7810358,8.353814 0.4295699,0.423074 0.9835639,0.769226 1.2310999,0.769226 0.247535,0 0.811129,0.542725 1.252431,1.206055 0.735043,1.104853 0.736004,1.337074 0.01146,2.767499 -0.950531,1.876575 -1.012711,3.443912 -0.169632,4.275799 0.497453,0.490847 0.844352,0.339624 1.740516,-0.758738 0.61558,-0.754471 1.237501,-1.731757 1.382046,-2.171745 z M 17.24765,13.548441 c -0.191693,-0.188792 -0.348531,-0.762425 -0.348531,-1.274736 0,-0.685986 0.29473,-0.890252 1.118302,-0.775054 0.731076,0.10226 1.118301,0.493097 1.118301,1.128734 0,0.970989 -1.228752,1.570409 -1.888072,0.921056 z m 1.194129,-1.304099 c -0.637922,-0.628276 -1.284831,-0.142693 -0.812552,0.609918 0.182944,0.291534 0.56032,0.391466 0.838612,0.222072 0.339467,-0.20663 0.330891,-0.480435 -0.02606,-0.83199 z m 17.841235,25.637362 c 0,-0.720875 -0.239953,-1.547008 -0.533228,-1.835849 -0.293274,-0.28884 -0.46102,-1.267547 -0.372767,-2.174904 0.120059,-1.234361 0.503841,-1.811027 1.524247,-2.290313 0.750082,-0.352313 1.485086,-1.12482 1.633341,-1.71668 0.148255,-0.591862 0.205532,-4.484211 0.127283,-8.649664 -0.140447,-7.47634 -0.157831,-7.581186 -1.354345,-8.168062 -0.66664,-0.326979 -1.53336,-1.214312 -1.926043,-1.971849 C 34.226452,8.8461429 33.201801,7.9141328 30.56725,6.6953964 25.854393,4.5152417 25.366784,4.9847815 25.355296,11.714222 l -0.0068,3.975212 3.085031,0.343754 c 4.16023,0.463559 6.245343,1.388968 6.901951,3.063203 0.309233,0.788484 0.463779,3.573111 0.364164,6.561496 -0.161947,4.85828 -0.276442,5.355464 -1.782942,7.742273 -0.885435,1.40283 -1.609883,2.705108 -1.609883,2.893952 0,0.188843 0.576205,1.17849 1.280457,2.199219 1.038914,1.505782 1.413943,1.74676 1.988091,1.277463 0.3892,-0.318123 0.707636,-1.168213 0.707636,-1.88909 z M 28.533613,13.183216 c -0.402277,-1.032465 0.162375,-1.772896 1.352004,-1.772896 0.750867,0 0.959799,0.272555 0.840457,1.096392 -0.185358,1.27956 -1.767307,1.767686 -2.192461,0.676504 z m 1.660802,-1.079494 c -0.473642,-0.466481 -1.423221,0.289103 -1.070243,0.851597 0.209803,0.334336 0.487811,0.325889 0.844762,-0.02566 0.292625,-0.2882 0.394092,-0.659869 0.225481,-0.82593 z m -3.098966,26.670029 c 1.903277,-0.987822 5.211381,-3.748132 5.211381,-4.348421 0,-0.159122 -0.503235,-0.325545 -1.118302,-0.369829 -1.108353,-0.0798 -3.354903,-2.172503 -3.354903,-3.125153 0,-0.278586 0.489174,-0.360284 1.1183,-0.186773 1.102548,0.304079 1.101351,0.295006 -0.08495,-0.644114 l -1.203252,-0.952536 2.185418,-0.363641 c 3.148169,-0.523839 5.439827,-2.879413 5.439827,-5.591549 0,-1.704492 -1.091996,-5.417814 -1.593245,-5.417814 -0.08409,0 -0.857849,-0.199121 -1.719458,-0.442489 -1.341483,-0.378916 -1.602657,-0.306533 -1.817815,0.503791 -0.223139,0.840381 -0.04744,0.916419 1.56984,0.679441 1.618578,-0.237166 1.696735,-0.203218 0.702797,0.305274 -0.631366,0.323001 -1.11142,1.019117 -1.102496,1.598704 0.01553,1.007924 0.02908,1.009313 0.745535,0.07639 0.636318,-0.828567 0.729728,-0.844232 0.729728,-0.122378 0,0.963071 0.795244,1.110866 1.161899,0.215937 0.149762,-0.365536 0.26649,-0.266996 0.28993,0.244753 0.03974,0.867373 -0.367126,1.028437 -2.239173,0.886432 -0.869523,-0.06596 -1.002394,0.145971 -0.827467,1.319807 0.292631,1.963674 -0.960829,2.932215 -2.874234,2.220906 -1.050338,-0.390463 -1.488819,-0.382576 -1.660496,0.02987 -0.128305,0.308241 -0.250938,0.08439 -0.272519,-0.49744 -0.04184,-1.12796 2.514655,-3.592445 3.726568,-3.592445 0.389069,0 0.707399,-0.448306 0.707399,-0.996238 0,-0.844551 -0.151354,-0.91646 -0.994046,-0.472285 -0.546725,0.288174 -0.994045,0.751326 -0.994045,1.029225 0,0.28251 -0.438252,0.36828 -0.994046,0.194545 -0.594432,-0.185813 -0.994046,-0.08797 -0.994046,0.243398 0,0.30477 -0.480034,1.653122 -1.066742,2.996339 -1.247979,2.857142 -1.755786,2.644403 -2.681623,-1.123439 -0.432086,-1.758438 -0.654048,-2.16806 -0.682572,-1.25966 -0.05525,1.759532 -0.818701,1.711986 -1.775658,-0.110584 -0.595408,-1.133982 -1.396599,-1.644937 -3.61618,-2.306203 -1.912971,-0.569918 -2.500016,-0.905029 -1.783837,-1.018293 0.587109,-0.09286 1.873156,0.162724 2.857881,0.567947 1.881113,0.774095 1.958284,0.719295 1.477143,-1.048929 -0.334492,-1.229281 -1.045096,-1.336115 -3.826876,-0.575349 -2.212401,0.605052 -3.315201,2.557966 -3.315201,5.870786 0,2.712137 2.291657,5.06771 5.439827,5.591549 l 2.185418,0.36364 -1.203252,0.952537 c -1.186302,0.93912 -1.187499,0.948193 -0.08495,0.644114 0.629126,-0.173512 1.118302,-0.09181 1.118302,0.186773 0,0.952651 -2.246552,3.045352 -3.354905,3.125153 -1.564085,0.112613 -1.412505,0.526885 0.908798,2.483792 4.029526,3.396973 6.375102,3.939511 9.6603,2.234457 z m -6.86682,-3.403376 -1.092907,-0.87651 1.394869,-1.440112 c 1.939718,-2.002635 4.698855,-2.015762 6.629045,-0.03154 1.27635,1.312078 1.313727,1.464204 0.545632,2.220687 -1.211466,1.193148 -6.045113,1.275561 -7.476639,0.127475 z m 6.610949,-0.457073 c 0,-0.516054 -2.622228,-0.868091 -4.473206,-0.600532 -2.561674,0.37029 -1.630838,0.98553 1.491069,0.98553 1.640175,0 2.982137,-0.173249 2.982137,-0.384998 z M 26.295681,33.13779 c -0.252652,-0.299822 -1.34986,-0.545132 -2.43824,-0.545132 -1.088381,0 -2.185589,0.24531 -2.438242,0.545132 -0.328559,0.389906 0.36574,0.545135 2.438242,0.545135 2.072501,0 2.7668,-0.155229 2.43824,-0.545135 z m -4.180569,-3.130554 c -0.355768,-0.566941 0.149172,-2.44316 0.657521,-2.44316 0.1866,0 0.339272,0.660837 0.339272,1.468524 0,1.477641 -0.422135,1.890394 -0.996793,0.974636 z m 2.746342,-0.252203 c 0.345789,-0.410351 0.731062,-0.645284 0.856162,-0.522075 0.344685,0.339472 -0.355641,1.268165 -0.956321,1.268165 -0.329572,0 -0.291867,-0.28087 0.100161,-0.74609 z m -9.911188,-3.112555 c -0.02158,-0.372265 -0.516807,-1.084775 -1.100501,-1.583356 -0.87533,-0.74769 -0.951746,-1.036473 -0.436165,-1.648316 0.343804,-0.407994 0.933202,-0.741808 1.309773,-0.741808 0.376573,0 0.684677,-0.220277 0.684677,-0.489507 0,-0.269229 -0.167745,-0.463421 -0.372767,-0.43154 -1.071708,0.166659 -1.611272,-0.14645 -1.576086,-0.914607 0.02345,-0.511749 0.140169,-0.610288 0.28993,-0.244753 0.366655,0.894928 1.161901,0.747134 1.161901,-0.215937 0,-0.721854 0.09341,-0.706189 0.729727,0.122377 0.660281,0.859771 0.731232,0.868674 0.745535,0.09355 0.01432,-0.77595 0.09773,-0.785793 0.885596,-0.104506 0.478385,0.413675 1.596687,1.314371 2.485114,2.001546 1.116786,0.863802 1.609321,1.651442 1.595871,2.552041 -0.01857,1.242878 -0.05497,1.224042 -0.793658,-0.410646 -0.758457,-1.67843 -0.78336,-1.689937 -1.224428,-0.565715 -0.247624,0.631158 -0.894432,1.261968 -1.437354,1.401798 -0.542922,0.139831 -0.842842,0.484172 -0.66649,0.765201 0.200945,0.320221 -0.07055,0.410213 -0.727294,0.241068 -0.576364,-0.148444 -1.152831,-0.01794 -1.281039,0.290022 -0.145302,0.349018 -0.247884,0.304977 -0.272342,-0.116925 z m 0.850147,-1.721322 c -0.352482,-0.37669 -0.719186,-0.611625 -0.8149,-0.522077 -0.294809,0.275818 0.45236,1.206967 0.968488,1.206967 0.268008,0 0.198894,-0.308201 -0.153588,-0.68489 z m 14.518326,1.437806 c 0,-0.158202 0.55915,-0.497014 1.242558,-0.752916 0.87255,-0.326727 1.242556,-0.833296 1.242556,-1.701162 0,-1.347424 0.462951,-1.563147 1.391665,-0.648476 0.721237,0.710333 0.795326,1.549468 0.0994,1.125869 -0.273363,-0.166394 -0.497024,-0.05353 -0.497024,0.250829 0,0.304349 -0.279575,0.812975 -0.621279,1.130282 -0.664846,0.617376 -2.857881,1.074398 -2.85788,0.595574 z M 17.428816,32.93144 c 1.09992,-0.579759 1.320435,-1.556276 0.26102,-1.155888 -0.385193,0.145578 -1.503495,0.04628 -2.485115,-0.220659 -1.947429,-0.529581 -2.032722,-0.466703 -1.270253,0.936443 0.566321,1.042177 2.007683,1.223713 3.494348,0.440104 z m 16.391865,-0.514209 c 0.305128,-0.561518 0.480743,-1.070766 0.390254,-1.131664 -0.09049,-0.06089 -1.282826,0.135659 -2.649638,0.436792 -2.226756,0.490594 -2.381773,0.606698 -1.49107,1.116778 1.544942,0.884746 3.137788,0.705559 3.750454,-0.421906 z M 17.095148,30.20847 c 0.54751,-0.206922 0.08622,-0.636518 -1.574675,-1.466475 -1.291964,-0.645601 -2.404941,-1.174743 -2.473282,-1.17587 -0.460944,-0.0076 -8.4e-5,2.413253 0.497023,2.610807 0.895125,0.35573 2.65185,0.371332 3.550934,0.03154 z M 34.090007,30.1265 c 0.618099,-0.411175 1.273498,-2.563472 0.779663,-2.560371 -0.906121,0.0057 -4.963699,2.397578 -4.428137,2.610328 0.956733,0.380057 3.045041,0.351464 3.648474,-0.04995 z M 8.4497291,22.150602 c 0,-5.116027 -0.1735555,-7.755372 -0.4970229,-7.558482 -0.2950606,0.179601 -0.4970229,3.241274 -0.4970229,7.534675 0,6.353696 0.1608585,7.884821 0.8283717,7.884821 0.091121,0 0.1656741,-3.537456 0.1656741,-7.861014 z m 31.8094679,0.02889 c 0,-4.006662 -0.204134,-7.409093 -0.45363,-7.56096 -0.266186,-0.162024 -0.456206,2.963815 -0.459863,7.564752 -0.0037,4.681814 0.179047,7.728096 0.453632,7.560959 0.252924,-0.153953 0.459861,-3.558091 0.459861,-7.564751 z M 6.4616374,25.745904 c 0,-2.96046 -0.076029,-3.211816 -0.76596,-2.532317 -0.6022586,0.593154 -0.6553706,1.040853 -0.2485115,2.094794 0.2845968,0.737227 0.5174485,1.876769 0.5174485,2.532316 0,0.655546 0.1118302,1.191903 0.2485114,1.191903 0.1366814,0 0.2485116,-1.479013 0.2485116,-3.286696 z M 42.420894,24.818519 c 0.22443,-0.66985 0.08017,-1.249457 -0.410894,-1.650839 -0.665955,-0.544336 -0.749899,-0.214904 -0.6996,2.74556 0.04599,2.706457 0.12631,3.029184 0.410894,1.650839 0.194555,-0.942304 0.509375,-2.177805 0.6996,-2.74556 z M 4.813069,26.003772 c -0.1586626,-0.390496 -0.2764358,-0.274504 -0.3002849,0.295745 -0.02158,0.516022 0.09589,0.805137 0.2610465,0.642479 0.1651561,-0.16266 0.1828133,-0.58486 0.03924,-0.938224 z m 38.882744,-1.131987 c 0.01503,-0.269229 -0.189487,-0.159089 -0.454477,0.244755 -0.264992,0.403844 -0.469507,1.064679 -0.45448,1.468524 0.02885,0.775305 0.857203,-0.786042 0.908957,-1.713279 z M 25.825562,21.883174 c 1.479761,-4.718469 1.409659,-5.08827 -0.964568,-5.08827 h -1.978583 l 0.289351,2.325164 c 0.333846,2.682723 1.124309,5.99647 1.430399,5.99647 0.115161,0 0.665691,-1.455013 1.223401,-3.233364 z M 5.4675914,22.179491 c 0,-0.21162 -0.3354904,-0.511557 -0.7455343,-0.666526 -0.5045861,-0.190701 -0.7455344,0.02472 -0.7455344,0.666526 0,0.641813 0.2409483,0.857227 0.7455344,0.666527 0.4100439,-0.154969 0.7455343,-0.454907 0.7455343,-0.666527 z M 43.65552,21.70567 c -0.106792,-0.305423 -0.43064,-0.305423 -0.911207,0 -0.662698,0.421174 -0.662698,0.526468 0,0.947642 0.764455,0.485847 1.23964,-0.0084 0.911207,-0.947642 z M 6.3994265,18.385805 c -0.053359,-2.834007 -0.1088809,-3.025558 -0.3901907,-1.346146 -0.1803892,1.076918 -0.50714,2.243029 -0.7261124,2.591359 -0.3379944,0.537664 0.3941199,2.058965 0.9908605,2.058965 0.1032097,0 0.1596587,-1.48688 0.1254426,-3.304178 z m 36.0214675,1.154659 c -0.190225,-0.567754 -0.505045,-1.803256 -0.6996,-2.74556 -0.284584,-1.378343 -0.364911,-1.055616 -0.410894,1.650839 -0.05029,2.960464 0.03365,3.289897 0.6996,2.74556 0.49106,-0.401381 0.635324,-0.980988 0.410894,-1.650839 z m -20.601089,-1.88892 c 0.02725,-0.471151 -0.285946,-0.85664 -0.695991,-0.85664 -0.801778,0 -0.933644,0.982873 -0.394048,2.937047 l 0.337913,1.223771 0.351292,-1.223771 c 0.19321,-0.673072 0.373585,-1.609256 0.400834,-2.080407 z M 4.9280244,18.263428 c -0.018017,-0.484149 -0.1728248,-0.400778 -0.4544788,0.244755 -0.5871447,1.345698 -0.5871447,2.118572 0,1.223768 0.2649907,-0.403842 0.4695063,-1.064679 0.4544788,-1.468523 z m 38.3590106,-0.04194 c -0.317721,-0.782739 -0.490352,-0.906071 -0.511219,-0.365223 -0.04187,1.085074 0.601529,2.697597 0.819439,2.053751 0.09432,-0.278685 -0.04438,-1.038522 -0.30822,-1.688528 z M 29.317081,17.651546 c 0.0042,-0.471152 -0.327878,-0.85664 -0.737923,-0.85664 -0.756859,0 -1.063142,1.971564 -0.406716,2.618065 0.434544,0.427973 1.134761,-0.649555 1.144639,-1.761425 z m -4.959638,-3.181802 c 0.0016,-0.740381 0.146618,-3.163444 0.322178,-5.3845861 0.314355,-3.9771321 0.301873,-4.0384394 -0.82218,-4.0384394 -1.124054,0 -1.136535,0.061307 -0.822182,4.0384394 0.17556,2.2211421 0.320542,4.6442051 0.322179,5.3845861 0.0016,0.74038 0.226639,1.346146 0.500003,1.346146 0.273362,0 0.498363,-0.605766 0.500002,-1.346146 z"
       id="path1" /></g></svg>
