<?xml version="1.0" encoding="UTF-8" standalone="no"?>
<!-- Created with Inkscape (http://www.inkscape.org/) -->

<svg
   width="48"
   height="48"
   viewBox="0 0 48 48"
   version="1.1"
   id="svg1"
   xml:space="preserve"
   inkscape:version="1.4 (86a8ad7, 2024-10-11)"
   sodipodi:docname="play.svg"
   xmlns:inkscape="http://www.inkscape.org/namespaces/inkscape"
   xmlns:sodipodi="http://sodipodi.sourceforge.net/DTD/sodipodi-0.dtd"
   xmlns="http://www.w3.org/2000/svg"
   xmlns:svg="http://www.w3.org/2000/svg"><sodipodi:namedview
     id="namedview1"
     pagecolor="#ffffff"
     bordercolor="#000000"
     borderopacity="0.25"
     inkscape:showpageshadow="2"
     inkscape:pageopacity="0.0"
     inkscape:pagecheckerboard="0"
     inkscape:deskcolor="#d1d1d1"
     inkscape:document-units="px"
     inkscape:zoom="5.6568543"
     inkscape:cx="7.1594561"
     inkscape:cy="38.095378"
     inkscape:window-width="1360"
     inkscape:window-height="705"
     inkscape:window-x="760"
     inkscape:window-y="621"
     inkscape:window-maximized="1"
     inkscape:current-layer="layer1" /><defs
     id="defs1" /><g
     inkscape:label="Capa 1"
     inkscape:groupmode="layer"
     id="layer1"><path
       style="fill:#000000;stroke-width:0.44859"
       d="m 21.278063,46.629682 c 0,-0.232165 0.232446,-0.565777 0.516547,-0.74136 0.359173,-0.22198 0.270556,-0.499119 -0.290858,-0.909634 -0.645085,-0.471698 -0.698838,-0.721207 -0.267378,-1.241086 0.425973,-0.513265 0.406445,-0.729402 -0.09245,-1.02335 -0.347866,-0.204958 -1.141863,-1.180117 -1.764441,-2.167015 -1.437705,-2.27902 -3.596181,-3.638011 -4.345055,-2.735675 -0.410718,0.494885 -0.240782,0.714463 0.846199,1.093387 0.748069,0.260777 1.360125,0.595445 1.360125,0.743704 0,0.148261 -0.857928,0.658991 -1.906508,1.13496 -1.04858,0.475968 -1.69276,0.869829 -1.43151,0.875247 0.26125,0.0054 0.861099,0.292177 1.333,0.637238 0.795651,0.581795 0.606816,0.751674 -2.598605,2.337759 L 9.1805226,46.34423 5.3349498,45.091867 c -4.0380735,-1.315055 -4.55488326,-1.9858 -2.0775016,-2.696304 1.5409449,-0.441938 1.8141409,-0.92927 0.7498874,-1.337662 -1.0502507,-0.40302 -0.7934385,-1.161702 0.560738,-1.656552 2.6876833,-0.982147 2.63853,-0.939827 1.5700658,-1.351834 -1.4634473,-0.564316 -1.272273,-1.018268 1.2336234,-2.929288 1.2336235,-0.940774 2.2429517,-1.837239 2.2429517,-1.992143 0,-0.896062 -0.6963926,-0.628755 -1.8830839,0.722811 -1.6782762,1.911452 -2.1542292,1.934382 -2.1542292,0.103789 V 32.520909 L 4.014055,34.036164 C 3.1542155,34.869555 2.3406597,35.441369 2.2061547,35.306864 1.8612111,34.96192 0.60885314,24.591709 0.86256426,24.181195 c 0.1148713,-0.185867 1.47503524,-0.476197 3.02258524,-0.64518 1.5475499,-0.168983 3.570724,-0.423233 4.4959416,-0.565003 1.6308649,-0.249893 1.6822139,-0.21622 1.6822139,1.103139 0,1.283998 0.06172,1.331771 1.092278,0.845426 0.938621,-0.442958 1.00612,-0.610678 0.479814,-1.192238 -0.336856,-0.372222 -0.84917,-1.281994 -1.138476,-2.021717 C 9.9823061,20.389809 9.9625061,20.382539 9.5829727,21.370001 9.0622328,22.72485 8.4397259,22.642223 7.8931509,21.145705 L 7.442593,19.912081 7.4071766,21.145705 C 7.3574749,22.876977 6.510806,22.688927 4.3776096,20.47282 L 2.5424279,18.56631 1.5929567,11.186711 C 1.0674044,7.1019438 0.81471079,3.6358856 1.0269877,3.4236077 1.2392656,3.2113298 2.3346311,4.5033047 3.4803336,6.3173047 L 5.5501765,9.5945044 5.5637917,7.6506123 C 5.5820101,5.0486051 6.2678761,5.3671581 8.1902902,8.8705047 l 1.5398038,2.8060893 0.851672,-1.9022713 0.851672,-1.9022702 1.585399,1.5341108 c 0.884416,0.8558057 1.452842,1.1870107 1.285596,0.7490787 -0.242074,-0.6338758 -0.05302,-0.7859901 0.981816,-0.7900074 l 1.281618,-0.005 -1.457918,-1.1490131 C 13.295934,6.7815604 13.264716,6.2300485 14.9978,6.2300485 c 1.895398,0 1.674062,-0.558907 -0.672886,-1.6991423 -3.368903,-1.6367407 -3.099013,-1.8013134 4.934495,-3.0089488 4.760063,-0.71555496 5.122889,-0.70945086 10.264112,0.1727136 2.93129,0.5029682 5.432911,1.017781 5.559156,1.1440268 0.386598,0.3865987 -0.75211,1.4701727 -2.156136,2.0517401 -1.592586,0.6596699 -1.736829,1.3396106 -0.284187,1.3396106 1.719547,0 1.785396,0.5800994 0.213858,1.8840043 -1.421406,1.1793421 -1.439494,1.2325095 -0.423217,1.2440611 0.874316,0.00988 1.01731,0.1901668 0.810373,1.0213941 -0.193508,0.77729 0.09768,0.59923 1.266578,-0.7745234 0.834819,-0.9811187 1.605543,-1.687648 1.712718,-1.5700666 0.107182,0.1175789 0.573468,0.9618118 1.036203,1.8760623 l 0.841335,1.6622777 1.54678,-2.8959013 c 0.85073,-1.592744 1.708659,-2.8958985 1.90651,-2.8958985 0.19785,0 0.359756,0.9588611 0.359789,2.130803 l 6e-5,2.1308038 2.309595,-3.5887219 c 1.338759,-2.0802056 2.399004,-3.33066 2.522297,-2.9748003 0.116981,0.3376573 -0.156671,3.7693729 -0.608125,7.6260362 l -0.820826,7.012113 -1.987212,2.130805 c -1.092966,1.171942 -2.161454,2.130803 -2.374416,2.130803 -0.212963,0 -0.403671,-0.656063 -0.423799,-1.457918 l -0.0366,-1.457919 -0.637578,1.457919 c -0.737278,1.685897 -1.344371,1.859181 -1.773763,0.506289 -0.266701,-0.8403 -0.39887,-0.73534 -1.129772,0.897181 -0.455256,1.016845 -1.039474,1.84881 -1.298261,1.84881 -0.561996,0 -0.636587,2.08737 -0.08673,2.427197 0.211083,0.130457 0.288483,-0.261361 0.171998,-0.870706 -0.230381,-1.205166 -0.01478,-1.330084 1.186264,-0.687306 0.685462,0.366847 0.759871,0.243339 0.582302,-0.966529 l -0.203588,-1.387123 2.191899,0.30636 c 1.205543,0.168499 3.352624,0.430329 4.77129,0.581844 2.528031,0.269996 2.57937,0.303241 2.578131,1.669496 -0.0024,2.666351 -0.977265,9.471484 -1.420661,9.917231 -0.296893,0.298466 -0.857653,-0.03931 -1.675623,-1.00933 -1.52124,-1.804006 -1.836946,-1.82328 -1.836946,-0.112148 0,1.739432 -0.392837,1.696726 -1.91255,-0.20791 -0.77678,-0.973531 -1.489221,-1.457893 -1.908011,-1.297189 -0.473204,0.181586 0.112051,0.864439 2.004455,2.338703 1.470042,1.145229 2.681911,2.240137 2.693044,2.433131 0.01111,0.192995 -0.433955,0.530706 -0.989086,0.75047 -0.940785,0.372436 -0.879856,0.452234 0.897181,1.175066 2.069351,0.841735 2.420024,1.48629 1.009328,1.855196 -1.355814,0.354553 -1.082393,0.822228 0.750963,1.284487 0.90648,0.228557 1.72022,0.636255 1.808312,0.905998 0.142663,0.436844 -6.51264,2.873987 -7.848229,2.873987 -0.984522,0 -6.374395,-2.881966 -6.374395,-3.40839 0,-0.288356 0.454198,-0.666123 1.00933,-0.83948 0.933321,-0.291461 0.88265,-0.367547 -0.672886,-1.010374 -2.032998,-0.840136 -2.113437,-1.332605 -0.339499,-2.078491 1.020062,-0.428903 1.217434,-0.689847 0.821367,-1.085914 -0.809991,-0.809992 -3.55093,0.961536 -4.772966,3.084873 -0.569262,0.989113 -1.330556,1.911793 -1.691764,2.050402 -0.51059,0.195932 -0.54014,0.392519 -0.132781,0.883356 0.632471,0.762081 0.722716,0.67361 -2.168366,2.125757 -2.593907,1.302881 -2.818603,1.362936 -2.818603,0.753326 z m -9.741927,-2.559326 c 2.198582,-1.115249 2.279112,-1.214403 1.330859,-1.638618 -1.406124,-0.629049 -1.268794,-1.053206 0.672885,-2.078253 1.030304,-0.543917 1.372532,-0.895755 0.883101,-0.907898 -1.341304,-0.03328 -1.427881,-1.323342 -0.176468,-2.629535 1.086842,-1.134419 1.128511,-1.336842 0.66398,-3.2255 -0.2726,-1.108317 -0.561205,-2.094098 -0.641346,-2.190625 -0.131949,-0.158929 -2.663075,1.71413 -6.2244987,4.606199 l -1.345771,1.092838 1.2336234,0.562519 c 0.678493,0.309384 1.2336235,0.704556 1.2336235,0.878158 0,0.173602 -0.9394483,0.674419 -2.0876628,1.112927 l -2.0876624,0.797285 1.2037919,0.630731 c 1.4247785,0.746517 1.2213218,1.3058 -0.6223335,1.710735 -0.7373445,0.161947 -1.3395978,0.429811 -1.3383399,0.595251 0.00195,0.26139 3.639128,1.701805 4.6106768,1.825965 0.1932456,0.0247 1.4044397,-0.489285 2.6915417,-1.142179 z m 29.087059,0.506715 c 3.429458,-1.188683 3.418093,-1.177378 1.765696,-1.756504 -1.895666,-0.664385 -2.170122,-1.303652 -0.824765,-1.921047 0.976845,-0.448282 0.937782,-0.503237 -0.884531,-1.24438 -2.201896,-0.895521 -2.385394,-1.415283 -0.722818,-2.047394 0.65103,-0.247521 1.105228,-0.521466 1.009328,-0.608767 -0.09591,-0.0873 -1.763669,-1.415956 -3.706155,-2.952565 -3.840876,-3.038338 -4.031116,-3.032559 -4.5669,0.138717 -0.252577,1.494991 -0.122486,1.908254 0.954592,3.032482 0.685861,0.715885 1.160804,1.374876 1.055429,1.464425 -0.105376,0.08955 -0.595325,0.382057 -1.088773,0.650016 -0.830955,0.451235 -0.773007,0.539345 0.785032,1.193653 1.980735,0.831821 2.143564,1.458712 0.486886,1.874512 -1.146707,0.287805 -1.096528,0.351156 1.233623,1.557449 1.335924,0.691593 2.45404,1.266965 2.4847,1.278605 0.03067,0.01159 0.939057,-0.285 2.018656,-0.659202 z M 24.518447,43.817082 c -0.06822,-0.404219 0.08318,-0.863013 0.336443,-1.019541 0.894997,-0.553139 0.443511,-1.128828 -0.885285,-1.128828 -1.449605,0 -1.672083,0.371854 -0.785032,1.312127 0.448652,0.475572 0.448093,0.635667 -0.0027,0.800917 -0.804684,0.29492 -0.17356,1.107252 0.717506,0.923516 0.408764,-0.08429 0.687388,-0.483972 0.619164,-0.888191 z m -1.171496,-3.220803 c 0.02763,-0.02698 -0.821529,-0.46907 -1.887016,-0.982437 l -1.937247,-0.933396 0.742021,1.256141 c 0.601418,1.018119 0.958981,1.204278 1.887015,0.982438 0.629748,-0.150538 1.1676,-0.295773 1.195227,-0.322746 z m 3.91954,-0.457508 0.708528,-1.08135 -1.759724,0.744908 c -1.586861,0.671732 -1.662411,0.773565 -0.769085,1.036636 0.544854,0.160449 1.017893,0.311848 1.051197,0.336443 0.0333,0.02459 0.379393,-0.441893 0.769084,-1.036637 z m -1.646522,-1.251716 c 2.4822,-0.897576 1.766977,-1.47995 -1.817545,-1.47995 -2.460189,0 -3.252241,0.143515 -3.092305,0.560306 0.170796,0.445083 1.612175,1.078277 3.227638,1.417893 0.105851,0.02225 0.86284,-0.201961 1.682212,-0.498249 z M 29.35269,36.59616 c 0,-0.228343 0.385711,-0.314305 0.857137,-0.191024 0.707363,0.18498 0.946066,-0.139019 1.366056,-1.854189 0.279903,-1.143085 0.611175,-2.482067 0.736155,-2.975517 0.212643,-0.839553 0.186553,-0.846756 -0.40618,-0.112148 -0.586942,0.727431 -1.655988,1.084859 -1.655988,0.553668 0,-0.127253 0.908396,-1.47977 2.018657,-3.005593 1.110262,-1.525825 1.99524,-3.188034 1.96662,-3.693799 -0.04298,-0.759446 -0.08783,-0.78254 -0.257558,-0.132625 -0.12918,0.494641 -0.972256,0.980017 -2.269714,1.306721 -1.781819,0.448667 -1.930683,0.569159 -1.088214,0.880808 0.948174,0.350752 1.372876,1.287131 0.58379,1.287131 -0.215705,0 -1.250413,-0.3028 -2.299352,-0.672886 -2.452374,-0.865249 -2.55722,-0.84922 -1.28332,0.196191 0.86099,0.706561 0.9665,1.021132 0.564232,1.682213 -1.064358,1.749157 -7.804128,1.023754 -7.804128,-0.839961 0,-1.256264 0.731344,-1.316224 1.620042,-0.132821 0.938628,1.249891 2.473288,1.453688 3.314452,0.440148 0.307145,-0.370087 0.382327,-0.675977 0.167074,-0.679754 -0.215254,-0.0038 -0.08857,-0.202553 0.281516,-0.441722 0.386265,-0.249622 0.449613,-0.437777 0.148721,-0.44172 -0.28829,-0.0038 -0.960811,-1.318995 -1.494492,-2.922707 -0.533681,-1.603711 -1.068406,-2.915837 -1.188279,-2.915837 -0.119874,0 -0.08309,0.424877 0.08171,0.944169 0.164816,0.519294 0.04725,1.845716 -0.26126,2.947604 -0.490113,1.750508 -0.688079,1.971521 -1.568099,1.75065 -0.553944,-0.139031 -1.861215,0.04853 -2.905044,0.416824 -2.203737,0.777524 -2.682252,0.823623 -2.682252,0.258401 0,-0.226166 0.55513,-0.597138 1.233623,-0.824384 1.225698,-0.410522 1.222095,-0.415283 -0.56074,-0.741042 -1.007537,-0.184098 -2.134222,-0.756961 -2.569419,-1.306421 -0.550757,-0.695361 -0.777945,-0.785547 -0.785033,-0.311635 -0.0055,0.366806 0.931651,2.032611 2.082526,3.701791 1.150876,1.669178 1.941835,3.185538 1.757684,3.369688 -0.184149,0.18415 -0.635727,-0.06859 -1.003507,-0.561657 -0.618214,-0.828806 -0.644031,-0.761028 -0.342018,0.897886 0.601175,3.302173 0.915727,4.042017 1.662753,3.91088 0.396123,-0.06954 0.948988,0.301015 1.228587,0.823454 0.279601,0.522436 0.606514,0.851734 0.726475,0.731774 0.119958,-0.119958 -0.307362,-1.255079 -0.949605,-2.522486 -0.642244,-1.267406 -1.063749,-2.472599 -0.936675,-2.678206 1.022524,-1.654481 13.306383,-1.417574 12.953761,0.249826 -0.04442,0.210065 -0.603544,1.593131 -1.242488,3.07348 -0.638942,1.480348 -0.854926,2.299694 -0.479965,1.820769 0.374963,-0.478924 0.681749,-1.057598 0.681749,-1.285943 z m -5.831675,-0.273842 c 0,-0.898473 -0.57541,-1.831049 -1.129777,-1.831049 -0.321859,0 -0.517572,0.353263 -0.434918,0.785032 0.08265,0.431768 0.165725,0.936432 0.184602,1.121475 0.04972,0.487371 1.380093,0.414632 1.380093,-0.07545 z m 2.242952,-0.709574 c 0,-0.697808 -0.254201,-1.121475 -0.672886,-1.121475 -0.418685,0 -0.672885,0.423667 -0.672885,1.121475 0,0.697808 0.2542,1.121475 0.672885,1.121475 0.418685,0 0.672886,-0.423667 0.672886,-1.121475 z m -4.934494,-0.672886 c 0,-0.500673 -0.299061,-0.897181 -0.676686,-0.897181 -0.564393,0 -0.583708,0.148884 -0.116396,0.897181 0.308165,0.49345 0.612674,0.89718 0.676688,0.89718 0.06402,0 0.116383,-0.40373 0.116383,-0.89718 z m 7.177446,-0.503518 c 0,-0.216515 -0.302799,-0.393663 -0.672886,-0.393663 -0.386765,0 -0.672885,0.40485 -0.672885,0.952109 0,0.795455 0.110708,0.860227 0.672885,0.393662 0.370087,-0.307145 0.672886,-0.735593 0.672886,-0.952108 z M 6.1594955,30.902545 c 0.1732976,0 0.3150867,0.546694 0.3150867,1.214876 v 1.214876 L 8.398071,31.444536 c 2.127673,-2.088155 2.788501,-2.352177 2.426964,-0.969655 l -0.240091,0.918108 1.421393,-0.899963 c 1.95761,-1.23947 1.916297,-2.529639 -0.07799,-2.435665 -1.305503,0.06152 -1.468267,-0.04835 -1.258721,-0.849652 C 10.85027,26.516919 10.7823,26.415393 10.39708,26.800612 9.2721564,27.925536 8.5907706,27.38948 8.8762552,25.604155 l 0.2733867,-1.709665 -3.468334,0.488624 -3.4683328,0.488626 0.084631,2.903255 c 0.046542,1.59679 0.211971,3.585324 0.3676109,4.418963 l 0.2829815,1.515707 1.4481065,-1.40356 c 0.7964586,-0.771959 1.5898961,-1.40356 1.7631937,-1.40356 z m 20.2773565,2.28481 c 1.294781,-0.289194 1.305704,-0.311564 0.2883,-0.590404 -0.58161,-0.159401 -1.490005,-0.128369 -2.018657,0.06895 -0.528652,0.19733 -1.361693,0.21535 -1.851203,0.04004 -0.489509,-0.175305 -1.296971,-0.209991 -1.794361,-0.07708 -0.829578,0.221682 -0.811627,0.267873 0.217132,0.55872 1.392887,0.393791 3.395039,0.393698 5.158789,-2.41e-4 z m 19.226867,-5.943213 c 0.301607,-2.441237 0.275213,-2.460185 -4.043185,-2.902619 l -2.972951,-0.304587 0.307375,1.638443 c 0.327084,1.743512 -0.312211,2.210483 -1.475415,1.077705 -0.464215,-0.452072 -0.546801,-0.387558 -0.426161,0.332904 0.126501,0.755467 -0.06673,0.872573 -1.249671,0.757372 -0.990709,-0.09648 -1.485002,0.08703 -1.692773,0.628483 -0.161405,0.420614 -0.238245,0.802798 -0.170757,0.849296 2.638161,1.817671 3.038543,1.937384 3.038543,0.90852 0,-1.139558 0.753288,-0.75576 2.421264,1.233624 1.583209,1.888281 1.598575,1.894715 1.60727,0.672886 0.01159,-1.620806 0.862775,-1.572123 2.504248,0.143219 l 1.31755,1.376844 0.288329,-2.161876 c 0.15858,-1.189033 0.404432,-3.101628 0.546334,-4.250214 z M 12.164105,25.883941 c -0.143202,-0.357855 -0.249499,-0.251558 -0.271024,0.271023 -0.01948,0.472888 0.08655,0.737837 0.235608,0.588775 0.149064,-0.149064 0.165,-0.535972 0.03541,-0.859798 z m 19.79247,-1.850563 c 0.321877,-0.252331 0.777897,-0.818787 1.013378,-1.258789 0.381295,-0.712456 0.292706,-0.757082 -0.809524,-0.40779 -0.68072,0.21572 -2.286327,0.723041 -3.568015,1.127382 -1.523578,0.480651 -2.253788,0.934662 -2.109216,1.311407 0.171741,0.447549 0.742278,0.476896 2.554636,0.131409 1.283432,-0.244658 2.596865,-0.651287 2.918741,-0.903619 z m -10.678512,0.629439 c 0,-0.22443 -1.511585,-0.91628 -3.359078,-1.537446 l -3.359079,-1.12939 0.663445,1.282958 c 0.66616,1.288214 1.441897,1.579271 4.596794,1.724719 0.801854,0.03696 1.457918,-0.116407 1.457918,-0.340841 z m -9.420397,-3.629259 c -0.739525,-1.785371 -1.05141,-1.473485 -0.398747,0.398747 0.276363,0.792776 0.607244,1.336647 0.73529,1.208602 0.128046,-0.128046 -0.02339,-0.851353 -0.336543,-1.607349 z m 24.137243,0.661016 c -0.138115,-0.138116 -0.388949,0.110854 -0.557409,0.55326 -0.243444,0.639331 -0.191915,0.690857 0.251119,0.251119 0.306575,-0.304294 0.444406,-0.666266 0.30629,-0.804379 z m -9.109467,-0.212426 c 0.446566,-0.49345 0.711006,-0.897181 0.587643,-0.897181 -0.123363,0 -0.589667,0.403731 -1.036233,0.897181 -0.446565,0.49345 -0.711003,0.89718 -0.587642,0.89718 0.123363,0 0.589668,-0.40373 1.036232,-0.89718 z m -8.523216,-1.13204 c -0.751512,-0.614141 -1.675751,-0.995131 -2.093052,-0.8628 -1.487178,0.471605 -1.280316,-0.706953 0.252372,-1.437841 l 1.571571,-0.74943 2.041063,1.672497 c 2.179181,1.785675 2.214962,1.758075 2.061386,-1.590154 -0.09196,-2.004823 0.49813,-3.15621 1.110094,-2.166032 0.205597,0.332664 0.485781,0.319547 0.92287,-0.0432 0.491491,-0.407903 0.691624,-0.354153 0.922611,0.247786 0.164994,0.429969 0.0474,0.921689 -0.26688,1.115923 -0.420971,0.260174 -0.43072,0.428287 -0.03888,0.670458 0.287634,0.177767 0.488707,0.758131 0.446828,1.289697 -0.215661,2.737349 -0.05943,2.80441 1.946655,0.835588 2.085929,-2.047186 2.394031,-2.149639 4.111373,-1.367166 1.459301,0.664901 1.555706,1.843135 0.12135,1.483136 -0.73043,-0.183327 -1.327162,0.06934 -2.095604,0.887306 l -1.074374,1.143615 2.432047,-0.718785 c 1.337628,-0.39533 2.569972,-0.802049 2.738548,-0.90382 0.586908,-0.354325 -1.072072,-4.214202 -2.188823,-5.092639 -1.620159,-1.274418 -3.735977,-1.551637 -5.671195,-0.743051 -1.4695,0.613997 -1.814026,0.614682 -3.269588,0.0066 -2.057459,-0.85966 -4.650709,-0.468284 -6.158965,0.929522 -1.077126,0.998244 -2.311097,4.19756 -1.814842,4.705334 0.299709,0.306666 4.27121,1.742955 4.890613,1.768685 0.246724,0.01025 -0.157007,-0.476263 -0.897181,-1.081139 z m 19.566006,-2.456682 c 0.208543,0 0.514485,0.539135 0.67987,1.198077 0.291761,1.162474 0.323501,1.139757 1.067977,-0.76435 1.105829,-2.828325 1.78855,-2.797405 1.78855,0.08101 v 2.383856 l 1.318199,-1.337146 c 1.198021,-1.215237 1.386097,-1.840921 2.062937,-6.862861 0.409604,-3.0391438 0.661537,-5.6089159 0.559848,-5.7106037 -0.10169,-0.1016903 -0.878609,1.0201046 -1.726492,2.4928729 -0.847883,1.4727688 -1.781754,2.6799468 -2.075266,2.6826198 -0.293512,0.0027 -0.59631,-0.740188 -0.672885,-1.650802 L 40.791744,8.7504339 39.530122,11.078981 c -0.693892,1.2807 -1.428969,2.328545 -1.633505,2.328545 -0.204537,0 -0.694968,-0.807461 -1.089847,-1.79436 -0.394877,-0.986899 -0.807014,-1.7943622 -0.915855,-1.7943622 -0.108842,0 -0.925344,0.8877562 -1.814447,1.9727912 l -1.616553,1.972788 0.883225,1.952376 c 0.485774,1.073808 0.991508,2.305641 1.12385,2.737409 0.132344,0.431768 0.664296,0.785033 1.182115,0.785033 0.749076,0 0.89198,0.206277 0.699238,1.009329 -0.133237,0.555131 0.08241,0.252332 0.479234,-0.672886 0.396815,-0.925217 0.89211,-1.682214 1.100655,-1.682214 z M 6.6505193,16.099063 c 0.3177028,0 0.8441282,0.807463 1.1698338,1.794363 0.6298846,1.908568 1.3457711,2.385826 1.3457711,0.897179 0,-1.048863 0.8083471,-1.202054 1.1835488,-0.224295 0.325053,0.847075 2.853765,0.914443 2.853765,0.07603 0,-0.328272 0.495503,-1.575606 1.10112,-2.77185 l 1.101121,-2.174992 -1.634468,-1.826201 c -0.898959,-1.00441 -1.747728,-1.8744183 -1.886155,-1.9333518 -0.138427,-0.05893 -0.589959,0.6980628 -1.003405,1.6822138 -0.413446,0.984152 -0.9379179,1.789365 -1.1654941,1.789365 -0.2275757,0 -0.7784128,-0.808623 -1.2240819,-1.796942 C 8.0464055,10.622265 7.3918982,9.5730717 7.0376146,9.2790425 6.4954102,8.8290525 6.4176305,8.9892052 6.5461695,10.290951 6.7820868,12.680142 5.8044985,12.201663 3.7484649,8.921622 2.29264,6.5991098 1.9696221,6.2796282 2.1610252,7.3515566 c 0.1321651,0.7401727 0.4865521,3.3644264 0.7875271,5.8316744 0.4375571,3.586877 0.778294,4.794601 1.7001864,6.026225 l 1.1529579,1.540322 0.1355909,-2.325356 c 0.089057,-1.527316 0.3338316,-2.325355 0.7132318,-2.325355 z m 17.7676767,3.615198 c 0,-0.478888 -0.184625,-0.984811 -0.410276,-1.12427 -0.491666,-0.303868 -0.88706,0.645829 -0.597126,1.434238 0.320467,0.871436 1.007402,0.660072 1.007402,-0.309968 z m -2.290427,-6.810849 c 1.618103,0.414709 2.471239,0.438908 3.125681,0.08866 1.105542,-0.591668 4.084597,-0.619063 4.99114,-0.0459 0.490953,0.310407 0.813171,0.160215 1.217727,-0.567607 0.87356,-1.571586 0.696785,-1.796126 -1.212447,-1.540044 -2.391523,0.32077 -2.360458,-0.507172 0.08226,-2.1923399 L 32.208752,7.3515505 30.556427,6.9359909 c -0.908785,-0.2285571 -1.65233,-0.5777184 -1.65233,-0.775915 0,-0.1981965 0.807463,-0.7722942 1.794362,-1.2757726 0.986898,-0.5034784 1.794361,-1.0731903 1.794361,-1.2660271 0,-0.1928368 -1.96819,-0.6651247 -4.373757,-1.0495292 -3.986726,-0.6370693 -4.737718,-0.6350082 -8.486834,0.023296 -2.262193,0.3972107 -4.236856,0.8464307 -4.388139,0.9982643 -0.151283,0.1518337 0.322414,0.5235431 1.052663,0.8260231 0.730249,0.3024787 1.658326,0.915272 2.062395,1.3617633 0.695274,0.7682684 0.63631,0.8284185 -1.099582,1.121696 l -1.834253,0.3098947 2.059936,1.572877 c 1.132966,0.8650835 1.93657,1.6962456 1.785789,1.8470246 -0.15078,0.150782 -1.060973,0.217338 -2.022652,0.147903 l -1.748505,-0.126248 0.489818,1.297677 c 0.470799,1.24729 0.55627,1.279941 2.201165,0.840894 1.241501,-0.331377 2.322365,-0.300186 3.936903,0.113612 z"
       id="path1" /></g></svg>
