<?xml version="1.0" encoding="UTF-8" standalone="no"?>
<!-- Created with Inkscape (http://www.inkscape.org/) -->

<svg
   width="48"
   height="48"
   viewBox="0 0 48 48"
   version="1.1"
   id="svg1"
   xml:space="preserve"
   inkscape:version="1.4 (86a8ad7, 2024-10-11)"
   sodipodi:docname="mew.svg"
   xmlns:inkscape="http://www.inkscape.org/namespaces/inkscape"
   xmlns:sodipodi="http://sodipodi.sourceforge.net/DTD/sodipodi-0.dtd"
   xmlns="http://www.w3.org/2000/svg"
   xmlns:svg="http://www.w3.org/2000/svg"><sodipodi:namedview
     id="namedview1"
     pagecolor="#ffffff"
     bordercolor="#000000"
     borderopacity="0.25"
     inkscape:showpageshadow="2"
     inkscape:pageopacity="0.0"
     inkscape:pagecheckerboard="0"
     inkscape:deskcolor="#d1d1d1"
     inkscape:document-units="px"
     inkscape:zoom="3.9259158"
     inkscape:cx="-0.6367941"
     inkscape:cy="13.882111"
     inkscape:window-width="1360"
     inkscape:window-height="705"
     inkscape:window-x="760"
     inkscape:window-y="621"
     inkscape:window-maximized="1"
     inkscape:current-layer="layer1" /><defs
     id="defs1" /><g
     inkscape:label="Capa 1"
     inkscape:groupmode="layer"
     id="layer1"><path
       style="fill:#000000;stroke-width:0.495518"
       d="m 21.218107,45.643037 c -0.953872,-0.41334 -2.737735,-1.586595 -3.964143,-2.607234 -1.226406,-1.020638 -3.271436,-2.246338 -4.544508,-2.723779 -1.273073,-0.47744 -2.582529,-1.190812 -2.9099025,-1.585271 -0.327372,-0.394461 -1.109449,-0.717201 -1.7379503,-0.717201 -1.1482735,0 -2.7000682,-1.159486 -2.7000682,-2.017466 0,-0.253067 -0.4459661,-0.906089 -0.9910364,-1.45116 C 3.5262837,33.696711 3.3794633,32.8892 3.3794633,29.09023 c 0,-3.657665 0.1627509,-4.622411 0.9050098,-5.36467 0.497755,-0.497755 1.0489543,-1.280125 1.2248876,-1.738599 0.1759333,-0.458475 0.883595,-1.090437 1.5725801,-1.404359 0.6889851,-0.313924 1.2527017,-0.876864 1.2527017,-1.250981 0,-1.194266 2.3361175,-5.308471 3.7940585,-6.681827 0.774884,-0.729928 2.635286,-1.956335 4.134228,-2.7253483 2.479578,-1.2721176 3.194545,-1.3982071 7.928286,-1.3982071 4.783266,0 5.43682,0.1183892 8.102539,1.4677436 1.594781,0.8072598 3.743862,2.4268758 4.775736,3.5991458 1.476919,1.677868 1.940677,1.963205 2.179456,1.340956 0.574164,-1.496243 0.333729,-10.8866525 -0.294838,-11.5152197 -0.467203,-0.4672019 -0.41296,-0.7833622 0.247759,-1.4440801 0.789002,-0.7890027 0.901401,-0.7904385 1.670509,-0.02133 0.673816,0.6738161 0.710196,0.9624261 0.198961,1.5784272 -0.481506,0.5801789 -0.541555,2.6120703 -0.260667,8.8203112 0.319282,7.056836 0.480443,8.147519 1.287594,8.71397 0.507446,0.356122 0.922629,0.857834 0.922629,1.114916 0,0.257081 0.445967,0.913385 0.991037,1.458454 0.844215,0.844216 0.991035,1.651727 0.991035,5.450697 0,3.798972 -0.14682,4.606481 -0.991035,5.450697 -0.54507,0.54507 -0.991037,1.198092 -0.991037,1.451159 0,0.790996 -1.514331,2.017467 -2.490977,2.017467 -0.5135,0 -1.731386,0.541367 -2.706412,1.203036 -0.975026,0.661672 -2.418148,1.344786 -3.206936,1.518033 -0.788789,0.173247 -2.22006,1.056193 -3.180602,1.962101 -2.067278,1.949694 -5.584957,3.74845 -7.277318,3.721237 -0.663426,-0.01071 -1.986669,-0.357585 -2.940541,-0.770925 z m 7.273266,-1.681599 c 2.774489,-1.591245 3.64327,-2.483261 2.418577,-2.483261 -1.054332,0 -0.991747,-0.246083 0.680877,-2.677159 2.838991,-4.126331 4.644269,-12.188378 2.72926,-12.188378 -0.424887,0 -0.63471,0.222984 -0.466274,0.495519 0.179078,0.289755 -0.333402,0.495518 -1.234158,0.495518 -0.847223,0 -2.198281,0.340201 -3.002351,0.756002 -0.80407,0.415801 -1.461947,0.545873 -1.461947,0.289051 0,-0.256822 0.27873,-0.579418 0.619398,-0.716882 0.340669,-0.137462 -1.721924,-0.249931 -4.58354,-0.249931 -2.861617,0 -4.92421,0.112469 -4.583541,0.249931 0.340668,0.137464 0.619397,0.46006 0.619397,0.716882 0,0.256822 -0.657876,0.12675 -1.461946,-0.289051 -0.80407,-0.415801 -2.155128,-0.756002 -3.002351,-0.756002 -0.900756,0 -1.413236,-0.205763 -1.234158,-0.495518 0.168436,-0.272535 -0.07236,-0.495519 -0.535096,-0.495519 -1.981568,0 0.313206,9.001447 3.244937,12.728539 1.206511,1.533831 1.272564,2.136998 0.234022,2.136998 -1.224693,0 -0.355912,0.892016 2.418577,2.483261 1.504253,0.862731 3.2834,1.471582 4.300159,1.471582 1.016758,0 2.795905,-0.608851 4.300158,-1.471582 z m -6.997249,-2.452037 c -0.47774,-0.527896 -0.722123,-1.196845 -0.543073,-1.486554 0.350776,-0.567568 5.115033,-0.726923 6.447383,-0.215653 0.713191,0.273677 0.677882,0.45245 -0.293608,1.486554 -1.409638,1.500492 -4.345807,1.613347 -5.610702,0.215653 z m 4.361802,0.0814 C 25.986081,41.380206 25.236961,41.2079 24.191215,41.2079 c -1.045746,0 -1.794866,0.172306 -1.664712,0.382901 0.130155,0.210595 0.879275,0.3829 1.664712,0.3829 0.785436,0 1.534556,-0.172305 1.664711,-0.3829 z m -0.797555,-1.445227 c -0.476936,-0.124636 -1.257377,-0.124636 -1.734313,0 -0.476935,0.124637 -0.08672,0.226612 0.867157,0.226612 0.953872,0 1.344092,-0.101971 0.867156,-0.226612 z m 2.601469,-3.62257 c 0,-1.403967 0.110115,-1.486553 1.982072,-1.486553 1.090138,0 1.98207,0.222983 1.98207,0.495518 0,0.272535 -0.557457,0.495517 -1.238794,0.495517 -0.681337,0 -1.238795,0.222983 -1.238795,0.495518 0,0.272535 0.557458,0.495518 1.238795,0.495518 0.681337,0 1.238794,0.222984 1.238794,0.495519 0,0.272534 -0.891932,0.495517 -1.98207,0.495517 -1.871957,0 -1.982072,-0.08259 -1.982072,-1.486554 z m -5.175301,0.540235 c -0.317652,-0.513973 0.163615,-2.026788 0.644775,-2.026788 0.175243,0 0.318623,0.557457 0.318623,1.238794 0,1.250349 -0.450112,1.618509 -0.963398,0.787994 z m 2.449953,-0.04471 c 0.168435,-0.272535 0.529229,-0.495518 0.801764,-0.495518 0.272535,0 0.357707,0.222983 0.189271,0.495518 -0.168436,0.272534 -0.52923,0.495517 -0.801764,0.495517 -0.272535,0 -0.357707,-0.222983 -0.189271,-0.495517 z m -4.168311,-3.882695 c -0.569054,-1.063286 -0.686602,-1.092604 -1.484719,-0.370319 -0.476705,0.431413 -1.136938,0.784387 -1.467182,0.784387 -0.666995,0 -3.533423,-1.998828 -3.533423,-2.463938 0,-0.69947 3.116413,-2.066507 4.11856,-1.806634 1.249307,0.323965 3.514983,3.420491 3.198158,4.370964 -0.136781,0.410343 -0.435323,0.225607 -0.831394,-0.51446 z m 5.941742,0.530999 c -0.06939,-1.110928 2.157445,-4.092331 3.275089,-4.384868 1.05085,-0.275055 4.11856,1.116282 4.11856,1.867942 0,0.887944 -0.992698,0.845183 -1.479126,-0.06372 -0.726855,-1.358143 -1.493981,-1.269205 -1.493981,0.173206 0,1.553693 -1.176434,2.475776 -2.677905,2.098931 -0.747191,-0.187533 -1.298967,-0.06749 -1.453868,0.316305 -0.197411,0.489117 -0.257834,0.487484 -0.288769,-0.0078 z m -9.949476,6.552488 c 0,-0.147302 -0.444697,-0.871997 -0.988212,-1.610432 -0.543517,-0.738436 -1.473203,-2.680508 -2.065968,-4.315716 -1.452221,-4.006107 -1.610591,-12.550105 -0.277841,-14.989416 1.262134,-2.310065 2.030418,-1.995786 0.81614,0.333855 -1.206003,2.313769 -1.18193,6.231757 0.03829,6.231757 0.463538,0 0.797438,-0.559478 0.887184,-1.486554 0.18099,-1.869599 1.084808,-4.211903 1.625237,-4.211903 0.225565,0 0.07442,0.80342 -0.335861,1.785379 -0.410288,0.981957 -0.677638,2.375601 -0.594113,3.096986 0.123311,1.064993 0.441738,1.33984 1.693531,1.461755 1.46635,0.14281 1.555219,0.04911 1.819088,-1.918191 0.152582,-1.137586 0.522183,-2.313098 0.821336,-2.61225 0.394871,-0.394873 0.44817,-0.07293 0.194506,1.174914 -0.688586,3.387332 -0.576058,3.687358 1.44574,3.854691 l 1.858191,0.153792 v -2.507502 c 0,-1.379126 0.222983,-2.507502 0.495518,-2.507502 0.272536,0 0.495519,1.128376 0.495519,2.507502 v 2.507502 l 1.858191,-0.153792 c 1.618522,-0.133956 1.855085,-0.313572 1.834102,-1.392587 -0.01325,-0.681337 -0.196266,-1.907743 -0.406703,-2.725347 -0.287609,-1.117439 -0.241157,-1.347655 0.187075,-0.927156 0.313327,0.307669 0.694526,1.490149 0.847108,2.627735 0.263869,1.967292 0.352738,2.061001 1.819088,1.918191 1.251792,-0.121915 1.57022,-0.396762 1.693531,-1.461755 0.08353,-0.721385 -0.183825,-2.115029 -0.594113,-3.096986 -0.410289,-0.981959 -0.570166,-1.785379 -0.355283,-1.785379 0.614585,0 1.540807,2.379392 1.540807,3.958215 0,1.573878 0.523834,2.136179 1.603924,1.721709 0.549539,-0.210878 0.624333,-0.844212 0.343814,-2.911364 -0.197179,-1.453022 -0.62266,-3.13543 -0.945511,-3.738684 -0.322852,-0.603253 -0.473888,-1.209941 -0.335635,-1.348194 0.138253,-0.138252 0.658031,0.494049 1.155062,1.405114 0.704858,1.292014 0.902858,2.746748 0.899894,6.611661 -0.0043,5.536251 -0.916218,9.315407 -2.982847,12.360756 -0.70083,1.032732 -1.17451,1.97742 -1.05262,2.09931 0.422314,0.422314 3.681824,-0.430554 5.219616,-1.365742 l 1.545,-0.93957 v -8.211662 c 0,-9.688002 -0.440916,-11.850158 -3.01223,-14.771324 -2.812358,-3.195008 -6.122048,-4.511559 -11.357789,-4.517978 -6.32656,-0.0078 -10.515034,2.213939 -13.050531,6.922406 -0.95501,1.773471 -1.084769,2.903386 -1.2329425,10.736229 -0.108583,5.739845 0.02248,9.105573 0.3805945,9.774735 0.639682,1.195258 6.470112,3.234334 6.470113,2.262792 z M 9.3256775,29.09023 V 21.161945 H 8.1043171 c -0.7003831,0 -1.4401627,0.408836 -1.7343126,0.958459 -0.5443993,1.01722 -0.7213391,12.787455 -0.2121784,14.114309 0.1783591,0.464795 0.8842233,0.783803 1.7343126,0.783803 h 1.4335388 z m 32.8989245,7.144483 c 0.165425,-0.431094 0.300774,-3.731242 0.300774,-7.333665 0,-6.942604 -0.239691,-7.739103 -2.328935,-7.739103 h -1.13969 v 7.928285 7.928286 h 1.433539 c 0.850088,0 1.555953,-0.319008 1.734312,-0.783803 z M 5.361535,29.33799 c 0,-3.138281 -0.1966346,-5.202938 -0.4955182,-5.202938 -0.5516035,0 -0.7078791,9.532823 -0.1651723,10.07553 C 5.3214174,34.831155 5.361535,34.53529 5.361535,29.33799 Z M 44.01193,29.060986 c 0,-2.953611 -0.198404,-4.925934 -0.495518,-4.925934 -0.29906,0 -0.495519,2.074405 -0.495519,5.232182 0,3.36194 0.177124,5.122713 0.495519,4.925934 0.276577,-0.170934 0.495518,-2.482735 0.495518,-5.232182 z M 10.057442,18.24126 c 0.460458,-2.096454 3.48108,-5.353935 6.384937,-6.885606 2.300135,-1.213232 3.048152,-1.342862 7.748836,-1.342862 4.752751,0 5.433152,0.121223 7.863604,1.401019 3.142878,1.654936 4.818354,3.32063 6.06717,6.031749 0.502149,1.09014 0.917894,1.69446 0.923879,1.342934 0.01874,-1.10029 -1.818598,-4.257435 -3.288482,-5.6507 -0.77443,-0.734063 -2.745953,-1.949829 -4.381163,-2.701704 -2.505366,-1.1519756 -3.635738,-1.3670431 -7.185008,-1.3670431 -3.549271,0 -4.679642,0.2150675 -7.185009,1.3670431 -3.416462,1.5709 -5.414139,3.298894 -6.671292,5.770676 -1.2231305,2.404884 -1.7368345,4.166064 -1.1004465,3.772755 0.280765,-0.173522 0.651103,-0.955739 0.8229745,-1.738261 z m 30.333734,0.08088 c -0.125636,-0.482123 -0.23669,-0.207638 -0.246789,0.609966 -0.01005,0.817604 0.09269,1.212069 0.228428,0.876588 0.135734,-0.335482 0.143996,-1.004431 0.01836,-1.486554 z M 40.543305,2.8277769 c 0,-0.2725352 -0.222984,-0.4955182 -0.495519,-0.4955182 -0.272535,0 -0.495518,0.222983 -0.495518,0.4955182 0,0.2725351 0.222983,0.4955182 0.495518,0.4955182 0.272535,0 0.495519,-0.2229831 0.495519,-0.4955182 z"
       id="path1" /></g></svg>
