<?xml version="1.0" encoding="UTF-8" standalone="no"?>
<!-- Created with Inkscape (http://www.inkscape.org/) -->

<svg
   width="48"
   height="48"
   viewBox="0 0 48 48"
   version="1.1"
   id="svg1"
   xml:space="preserve"
   inkscape:version="1.4 (86a8ad7, 2024-10-11)"
   sodipodi:docname="yoyo.svg"
   xmlns:inkscape="http://www.inkscape.org/namespaces/inkscape"
   xmlns:sodipodi="http://sodipodi.sourceforge.net/DTD/sodipodi-0.dtd"
   xmlns="http://www.w3.org/2000/svg"
   xmlns:svg="http://www.w3.org/2000/svg"><sodipodi:namedview
     id="namedview1"
     pagecolor="#ffffff"
     bordercolor="#000000"
     borderopacity="0.25"
     inkscape:showpageshadow="2"
     inkscape:pageopacity="0.0"
     inkscape:pagecheckerboard="0"
     inkscape:deskcolor="#d1d1d1"
     inkscape:document-units="px"
     inkscape:zoom="3.9259158"
     inkscape:cx="-0.6367941"
     inkscape:cy="13.882111"
     inkscape:window-width="1360"
     inkscape:window-height="705"
     inkscape:window-x="760"
     inkscape:window-y="621"
     inkscape:window-maximized="1"
     inkscape:current-layer="layer1" /><defs
     id="defs1" /><g
     inkscape:label="Capa 1"
     inkscape:groupmode="layer"
     id="layer1"><path
       style="fill:#000000;stroke-width:0.450106"
       d="M 16.908809,40.43165 C 10.933436,39.26908 9.8950579,38.789193 6.9221875,35.816323 5.0082022,33.902336 3.5988591,31.962799 2.6523712,29.940202 L 1.2395536,26.92108 2.083152,25.292726 c 1.3625738,-2.630111 11.397793,-12.413478 13.48992,-13.151368 2.433714,-0.858368 14.162127,-0.868974 16.579346,-0.01499 3.353928,1.18491 14.248482,12.58112 14.233973,14.889399 -0.01618,2.573226 -4.895903,9.15927 -8.38313,11.314494 -3.469662,2.14437 -14.980039,3.291012 -21.094452,2.101392 z m 11.96501,-0.345443 c 3.189942,-0.60496 5.630312,-1.901131 5.449092,-2.894212 -0.07703,-0.422119 0.373891,-1.441306 1.002045,-2.264859 0.923229,-1.210415 1.015727,-1.545864 0.482669,-1.750417 -0.496795,-0.190638 -0.557652,-0.520747 -0.246752,-1.338472 l 0.412677,-1.085425 -5.395646,-0.322039 c -5.151181,-0.307449 -5.414322,-0.371162 -5.807851,-1.406221 -0.514811,-1.354056 -0.993253,-1.375889 -1.565546,-0.07144 -0.410501,0.935673 -0.86549,1.043831 -5.979033,1.421311 -4.794629,0.353937 -5.495001,0.504406 -5.237686,1.125266 0.739956,1.785393 0.73812,2.292069 -0.0082,2.292069 -0.669588,0 -0.648256,0.154552 0.182329,1.321 0.517349,0.726551 0.885601,1.565394 0.818336,1.864096 -0.172592,0.766425 2.514735,2.27278 5.230606,2.931964 2.876373,0.698139 7.510611,0.775229 10.663063,0.17738 z m -3.863092,-1.130818 c -0.990235,-0.326356 -2.458707,-0.608939 -3.263272,-0.627964 -0.804566,-0.01902 -1.462846,-0.23714 -1.462846,-0.484698 0,-0.247559 0.354458,-0.447703 0.787686,-0.444766 1.285433,0.0087 5.609377,1.260507 6.120872,1.772003 0.588741,0.588741 0.113107,0.541977 -2.18244,-0.214575 z m -0.900214,-1.589558 c -1.980468,-0.464932 -4.196571,-0.851652 -4.924673,-0.859378 -1.261333,-0.01338 -1.282579,-0.04524 -0.450107,-0.674892 1.160429,-0.877704 0.441864,-0.856849 -1.949948,0.05659 -1.722837,0.657958 -2.032046,0.667566 -2.618256,0.08135 -0.854085,-0.854084 -1.398625,-3.978166 -0.693412,-3.978166 0.279949,0 0.509,0.489805 0.509,1.088453 0,2.530039 1.262284,3.174086 3.600852,1.837239 0.618896,-0.353792 2.188643,-0.650438 3.488326,-0.65921 2.008563,-0.01356 2.36306,-0.14312 2.36306,-0.863666 0,-0.469175 -0.401984,-0.952838 -0.900214,-1.083127 -0.495117,-0.129476 -0.900214,-0.572663 -0.900214,-0.984861 0,-0.681317 0.0643,-0.685148 0.707312,-0.04213 0.942503,0.942503 2.737225,0.898891 3.307595,-0.08038 0.43075,-0.739555 0.459621,-0.73698 0.472472,0.04213 0.0075,0.458641 -0.388983,0.935126 -0.886525,1.065237 -0.49823,0.130289 -0.900214,0.613952 -0.900214,1.083127 0,0.71673 0.346339,0.847716 2.241424,0.847716 1.232784,0 3.048744,0.323026 4.035466,0.717833 2.309344,0.924016 2.7662,0.735096 3.432531,-1.419434 0.53208,-1.720442 0.550064,-1.732856 0.595835,-0.411289 0.05347,1.543933 -1.030515,3.363424 -2.003807,3.363424 -0.357301,0 -0.649637,0.282151 -0.649637,0.627002 0,1.40798 -2.58456,1.488837 -7.876866,0.246422 z m 6.886631,-0.06324 c 0.77795,-0.77795 0.67935,-1.052368 -0.585139,-1.628506 -1.063179,-0.484417 -1.125266,-0.438735 -1.125266,0.827964 0,1.406451 0.752359,1.758588 1.710405,0.800542 z m -2.610617,-1.035242 c 0,-0.900213 -0.225054,-1.125266 -1.125268,-1.125266 -0.791096,0 -1.125266,0.245058 -1.125266,0.825195 0,1.043458 0.381881,1.425337 1.425338,1.425337 0.580138,0 0.825196,-0.33417 0.825196,-1.125266 z M 25.685887,36.0423 c 0,-0.700166 -0.300071,-0.900213 -1.35032,-0.900213 -1.486791,0 -1.915899,1.136511 -0.562632,1.490155 1.555924,0.406607 1.912952,0.296501 1.912952,-0.589942 z m -3.150746,-0.450107 c 0,-0.247559 -0.619598,-0.450106 -1.376883,-0.450106 -0.803306,0 -1.261001,0.187504 -1.098703,0.450106 0.152999,0.247559 0.772598,0.450107 1.376883,0.450107 0.604287,0 1.098703,-0.202548 1.098703,-0.450107 z m -12.078254,1.106881 c -2.5945699,-2.332743 -5.0257958,-6.73729 -5.0257958,-9.105022 0,-1.308063 0.4239842,-1.961343 2.6894713,-4.143974 1.4792083,-1.42511 4.0448655,-3.474184 5.7014605,-4.553498 l 3.011991,-1.96239 5.888783,-0.171504 c 3.535304,-0.102967 6.643527,0.03197 7.777273,0.337632 2.188575,0.59004 8.134763,4.866051 10.630506,7.644588 1.470644,1.637283 1.675286,2.115703 1.429058,3.34089 -0.578697,2.879476 -2.519976,6.111115 -5.072251,8.443749 -1.88767,1.725225 -2.267495,2.249948 -1.442935,1.993396 3.665111,-1.140357 9.446127,-8.271635 9.446127,-11.652444 0,-1.480764 -2.553004,-4.609171 -7.846577,-9.615059 -5.291345,-5.003782 -5.970035,-5.259032 -13.983591,-5.259127 -4.939253,-5.9e-5 -6.168087,0.143822 -7.88305,0.923 -2.317448,1.052913 -8.8399217,7.042294 -11.6847944,10.729777 -1.6611131,2.153111 -1.8763579,2.683004 -1.6278735,4.007538 0.5766763,3.073946 4.9970625,8.687569 8.1426279,10.340644 2.267487,1.191622 2.226624,0.838979 -0.15043,-1.298196 z m 28.213947,-2.796295 c 2.651139,-2.651141 3.774611,-5.831701 2.722225,-7.706655 -0.72872,-1.298307 -7.164208,-6.855294 -7.615813,-6.576187 -0.159199,0.09839 -0.198962,0.795454 -0.08836,1.549029 0.212735,1.449462 0.8785,1.737268 1.867945,0.807505 0.493855,-0.464068 0.554701,-0.271194 0.347317,1.100961 l -0.251431,1.663596 1.880711,0.13683 1.88071,0.136831 0.138616,2.172977 c 0.149003,2.335787 -0.418385,3.453355 -1.753266,3.453355 -0.456095,0 -1.046065,0.405096 -1.311043,0.900214 -0.552291,1.031965 -0.03883,1.193557 1.37991,0.434269 1.241234,-0.664287 1.076132,0.116801 -0.295974,1.400224 -1.457781,1.363565 -2.204649,2.666572 -1.528445,2.666572 0.268057,0 1.450161,-0.962785 2.626898,-2.139521 z m -28.239468,-0.04205 c -1.29564,-1.819558 -1.219083,-2.517002 0.175951,-1.602941 1.218999,0.798719 1.385353,0.610459 0.659324,-0.74614 -0.256269,-0.478843 -0.856786,-0.870623 -1.334484,-0.870623 -1.0559355,0 -1.8004261,-1.2754 -1.8004261,-3.084342 0,-2.02705 0.4341817,-2.767043 1.6235297,-2.767043 0.8414364,0 1.0771104,-0.240018 1.0771104,-1.096968 0,-0.999038 0.138476,-1.074496 1.551144,-0.845252 1.523098,0.247165 1.544894,0.228341 1.20541,-1.041038 -0.190154,-0.711014 -0.480366,-1.292754 -0.644913,-1.292754 -0.581342,0 -5.3544971,4.041348 -6.2370932,5.28084 -1.4463297,2.031182 -0.4396003,5.170606 2.6070007,8.129762 1.9549355,1.898825 2.4929755,1.868249 1.1174465,-0.0635 z m 10.53437,-4.366107 c 0.850519,-0.128385 1.52191,-0.582237 1.800426,-1.217065 0.586756,-1.337404 2.196955,-1.347178 2.386446,-0.01448 0.174437,1.226823 1.142083,1.414744 8.140533,1.580931 l 5.131669,0.121858 0.426083,-1.257109 c 0.234348,-0.691409 0.297189,-1.770672 0.139649,-2.398359 l -0.286435,-1.141251 -6.17153,0.2909 c -3.394342,0.159989 -6.625175,0.512804 -7.17963,0.784028 -0.733884,0.358998 -1.468489,0.355317 -2.700638,-0.01353 -0.930898,-0.278666 -4.376301,-0.633955 -7.656452,-0.789534 L 9.0319445,25.158142 v 2.253822 c 0,1.375629 0.2192274,2.346869 0.5626325,2.492618 0.58736,0.24929 9.01716,-0.05463 11.371159,-0.409964 z M 10.469682,29.368632 C 9.5703273,29.241142 9.4502005,29.000887 9.5694689,27.568206 l 0.1376355,-1.653304 4.0509586,0.127433 c 2.228027,0.07009 5.013063,0.241006 6.188966,0.379817 1.888307,0.222907 2.138006,0.378872 2.138006,1.335413 0,0.871164 -0.24214,1.0913 -1.237794,1.125312 -0.680785,0.02325 -3.060723,0.175168 -5.288752,0.33758 -2.228027,0.162414 -4.51799,0.229093 -5.088807,0.148175 z M 21.30469,28.086456 c 0.9905,-0.598104 -0.636296,-0.989751 -5.329114,-1.282969 -5.418698,-0.338573 -6.4406774,-0.09747 -5.871703,1.385257 0.260439,0.678695 0.850016,0.724444 5.573571,0.432485 2.905279,-0.179572 5.437538,-0.42022 5.627246,-0.534773 z m 10.039512,1.107846 c -4.992977,-0.339773 -5.978624,-0.670195 -5.525053,-1.852183 0.285319,-0.74353 2.640141,-1.107067 8.418762,-1.299686 l 3.825906,-0.12753 0.136298,1.630883 c 0.16989,2.032814 -0.134195,2.105932 -6.855913,1.648516 z m 6.494561,-1.478973 c 0,-1.294958 -0.235097,-1.322408 -7.132556,-0.832814 -2.938476,0.208579 -4.120108,0.460859 -4.120108,0.879649 0,0.577128 1.4709,0.745238 8.664552,0.990273 2.484092,0.08461 2.588112,0.04293 2.588112,-1.037108 z m -7.089178,-2.76592 c 3.237863,-0.217718 4.38854,-0.454379 4.38854,-0.902592 0,-0.334125 -0.383138,-0.6075 -0.851418,-0.6075 -0.548908,0 -0.968435,-0.43979 -1.180762,-1.237794 -0.181139,-0.680785 -0.422523,-0.984608 -0.53641,-0.675158 -0.281607,0.765167 -1.250896,0.708727 -1.932476,-0.112521 -0.775414,-0.934317 -1.310458,-0.845005 -1.043915,0.174254 0.318544,1.218116 -0.662425,1.625787 -1.685087,0.700291 -0.835759,-0.756352 -0.87185,-0.750384 -0.87185,0.144147 0,2.575526 -0.689288,2.660567 -3.905613,0.481859 -1.651077,-1.118424 -1.898488,-1.178277 -2.030791,-0.491284 -0.121152,0.62909 -0.566791,0.398723 -2.275463,-1.176276 l -2.124805,-1.958578 -0.464251,1.221076 c -0.3068,0.806941 -0.691115,1.13402 -1.133156,0.964393 -0.477355,-0.183178 -0.668905,0.05282 -0.668905,0.824125 0,1.102935 -1.347933,1.924363 -2.246504,1.369014 -0.249774,-0.154369 -0.454135,0.0351 -0.454135,0.421054 0,0.561429 0.607424,0.711491 3.038219,0.750576 1.67102,0.02687 4.253507,0.208302 5.738858,0.403186 1.485352,0.194886 3.409557,0.275246 4.276012,0.178581 0.866456,-0.09667 3.550217,-0.308546 5.963912,-0.470847 z m -2.960112,-3.693279 1.132526,1.057921 -0.09038,-1.35032 c -0.147168,-2.19883 -0.05844,-2.25453 1.388766,-0.871898 1.345742,1.28569 1.401382,1.298003 2.025479,0.448289 0.941289,-1.281574 0.792169,-1.88549 -0.596067,-2.413986 -2.999821,-1.14202 -14.515936,-1.090385 -14.515936,0.06508 0,0.562653 2.710438,3.447671 3.239042,3.447671 0.198995,0 0.36181,-0.320842 0.36181,-0.712982 0,-0.543013 0.402383,-0.39878 1.6879,0.605022 3.216214,2.511395 3.439588,2.53943 3.861329,0.484625 l 0.373002,-1.817348 z m -12.00593,-1.658555 c 0,-1.001625 -0.110033,-1.082215 -0.900214,-0.659324 -0.928958,0.497164 -1.121637,0.978861 -0.600141,1.500355 0.688126,0.688127 1.500355,0.232829 1.500355,-0.841031 z"
       id="path1" /></g></svg>
